<?xml version="1.0" encoding="utf-8"?>
<!-- Generator: Adobe Illustrator 23.1.1, SVG Export Plug-In . SVG Version: 6.00 Build 0)  -->
<svg version="1.2" baseProfile="tiny" id="g-plate-desktop_tablet-300-img" xmlns="http://www.w3.org/2000/svg" xmlns:xlink="http://www.w3.org/1999/xlink"
	 x="0px" y="0px" viewBox="0 0 300 400" xml:space="preserve">
<g>
	<g id="layer1_9_" transform="translate(-72.047241,-226.18111)">
		<g id="g3176_9_">
			<linearGradient id="SVGID_1_" gradientUnits="userSpaceOnUse" x1="158.3854" y1="382.4475" x2="336.9326" y2="543.846">
				<stop  offset="0" style="stop-color:#FCFDFF"/>
				<stop  offset="1" style="stop-color:#F0EFEF"/>
			</linearGradient>
			<linearGradient id="SVGID_2_" gradientUnits="userSpaceOnUse" x1="157.8049" y1="381.9228" x2="337.258" y2="544.1402">
				<stop  offset="0" style="stop-color:#F0EFEF"/>
				<stop  offset="1" style="stop-color:#FCFDFF"/>
			</linearGradient>
			<path fill-rule="evenodd" fill="url(#SVGID_1_)" stroke="url(#SVGID_2_)" stroke-width="1.6081" d="M233.018,306.278
				l-0.267,143.282c0,0-115.608,54.657-128.567,60.783c23.209,45.647,70.626,76.921,125.349,76.912
				c77.602-0.011,140.501-62.92,140.49-140.511c0-0.014,0-0.028,0-0.041C370.011,370.291,308.99,308.138,233.018,306.278z"/>
			<linearGradient id="SVGID_3_" gradientUnits="userSpaceOnUse" x1="298.3902" y1="509.3727" x2="183.907" y2="405.1226">
				<stop  offset="0" style="stop-color:#EBEBEB"/>
				<stop  offset="1" style="stop-color:#FFFFFF"/>
			</linearGradient>
			<path fill-rule="evenodd" fill="#F5F5F5" stroke="url(#SVGID_3_)" stroke-width="5.4046" d="M233.015,355.16
				c-0.029-0.001-0.059-0.001-0.089-0.002l-0.176,94.401c0,0-46.81,22.131-84.197,39.806c15.325,29.154,45.882,49.034,81.079,49.025
				c50.555-0.012,91.528-41.044,91.516-91.647c0-0.015,0-0.03,0-0.045C321.137,397.245,281.983,356.952,233.015,355.16z"/>
		</g>
	</g>
	<linearGradient id="SVGID_4_" gradientUnits="userSpaceOnUse" x1="160.688" y1="223.3609" x2="160.688" y2="223.3609">
		<stop  offset="0" style="stop-color:#EBEBEB"/>
		<stop  offset="1" style="stop-color:#FFFFFF"/>
	</linearGradient>
	<path fill-rule="evenodd" fill="#F5F5F5" stroke="url(#SVGID_4_)" stroke-width="5.4046" d="M160.688,223.361"/>
	<g id="layer1_8_" transform="translate(-72.047241,-226.18111)">
		<g id="g3176_8_">
			<linearGradient id="SVGID_5_" gradientUnits="userSpaceOnUse" x1="100.0877" y1="349.721" x2="211.4779" y2="450.4128">
				<stop  offset="0" style="stop-color:#FCFDFF"/>
				<stop  offset="1" style="stop-color:#F0EFEF"/>
			</linearGradient>
			<linearGradient id="SVGID_6_" gradientUnits="userSpaceOnUse" x1="99.6846" y1="349.2947" x2="212.0417" y2="450.8604">
				<stop  offset="0" style="stop-color:#F0EFEF"/>
				<stop  offset="1" style="stop-color:#FCFDFF"/>
			</linearGradient>
			<path fill-rule="evenodd" fill="url(#SVGID_5_)" stroke="url(#SVGID_6_)" stroke-width="1.6081" d="M218.088,296.126
				c-1.172-0.029-2.347-0.044-3.526-0.044c-77.602,0.011-140.501,62.92-140.49,140.511c0,0.014,0,0.028,0,0.041
				c0.003,22.876,5.479,44.472,15.183,63.557l128.567-60.783L218.088,296.126z"/>
			<linearGradient id="SVGID_7_" gradientUnits="userSpaceOnUse" x1="186.2911" y1="421.9771" x2="139.7503" y2="379.5965">
				<stop  offset="0" style="stop-color:#EBEBEB"/>
				<stop  offset="1" style="stop-color:#FFFFFF"/>
			</linearGradient>
			<path fill-rule="evenodd" fill="#F5F5F5" stroke="url(#SVGID_7_)" stroke-width="5.4046" d="M217.997,345.006
				c-1.108-0.04-2.221-0.061-3.338-0.061c-50.555,0.012-91.528,41.044-91.516,91.647c0,0.015,0,0.03,0,0.045
				c0.004,15.372,3.795,29.856,10.482,42.576"/>
		</g>
	</g>
	<linearGradient id="SVGID_8_" gradientUnits="userSpaceOnUse" x1="133.0618" y1="206.1497" x2="133.0618" y2="206.1497">
		<stop  offset="0" style="stop-color:#EBEBEB"/>
		<stop  offset="1" style="stop-color:#FFFFFF"/>
	</linearGradient>
	<path fill-rule="evenodd" fill="#F5F5F5" stroke="url(#SVGID_8_)" stroke-width="5.4046" d="M133.062,206.15"/>
	<g id="layer1_6_" transform="translate(-72.047241,-226.18111)">
		<g id="g3176_6_">
			<linearGradient id="SVGID_9_" gradientUnits="userSpaceOnUse" x1="300.1982" y1="512.1481" x2="185.7149" y2="407.898">
				<stop  offset="0" style="stop-color:#EBEBEB"/>
				<stop  offset="1" style="stop-color:#FFFFFF"/>
			</linearGradient>
			<path fill-rule="evenodd" fill="#F5F5F5" stroke="url(#SVGID_9_)" stroke-width="5.4046" d="M234.823,357.936
				c-0.029-0.001-0.059-0.001-0.089-0.002l-0.176,94.401c0,0-46.81,22.131-84.197,39.806c15.325,29.154,45.882,49.034,81.079,49.025
				c50.555-0.013,91.528-41.044,91.516-91.647c0-0.015,0-0.03,0-0.045C322.945,400.021,283.791,359.727,234.823,357.936z"/>
		</g>
	</g>
	<polyline fill="none" stroke="#FFFBF0" stroke-width="12" stroke-miterlimit="10" points="160.687,74.797 161.795,224.658 
		29.904,286.982 	"/>
	<path fill-rule="evenodd" fill="none" d="M-129.578,157.285c-28.595,64.225,101.112,49.282,152.609,141.243
		c68.298,121.964,238.195,83.261,270.259-6.021"/>
	
		<text transform="matrix(0.9812 0.1929 -0.1929 0.9812 120.1 372.0028)" fill="#787878" font-family="'Roboto-Regular'" font-size="12px">S</text>
	
		<text transform="matrix(0.9891 0.1475 -0.1475 0.9891 127.2959 373.4086)" fill="#787878" font-family="'Roboto-Regular'" font-size="12px">o</text>
	
		<text transform="matrix(0.9946 0.1041 -0.1041 0.9946 134.3052 374.4459)" fill="#787878" font-family="'Roboto-Regular'" font-size="12px">u</text>
	
		<text transform="matrix(0.9975 0.0701 -0.0701 0.9975 141.0516 375.1277)" fill="#787878" font-family="'Roboto-Regular'" font-size="12px">r</text>
	
		<text transform="matrix(0.9993 0.0376 -0.0376 0.9993 145.2628 375.4388)" fill="#787878" font-family="'Roboto-Regular'" font-size="12px">c</text>
	<text transform="matrix(1 -0.0018 0.0018 1 151.7473 375.679)" fill="#787878" font-family="'Roboto-Regular'" font-size="12px">e</text>
	
		<text transform="matrix(0.9995 -0.0303 0.0303 0.9995 158.2554 375.6401)" fill="#787878" font-family="'Roboto-Regular'" font-size="12px">:</text>
	
		<text transform="matrix(0.9988 -0.0482 0.0482 0.9988 161.2521 375.5483)" fill="#787878" font-family="'Roboto-Regular'" font-size="12px"> </text>
	
		<text transform="matrix(0.997 -0.0773 0.0773 0.997 164.3736 375.4233)" fill="#787878" font-family="'Roboto-Regular'" font-size="12px">F</text>
	
		<text transform="matrix(0.9931 -0.1175 0.1175 0.9931 171.1772 374.8938)" fill="#787878" font-family="'Roboto-Regular'" font-size="12px">o</text>
	
		<text transform="matrix(0.9874 -0.158 0.158 0.9874 178.1971 374.0587)" fill="#787878" font-family="'Roboto-Regular'" font-size="12px">o</text>
	
		<text transform="matrix(0.9803 -0.1977 0.1977 0.9803 185.1509 372.9397)" fill="#787878" font-family="'Roboto-Regular'" font-size="12px">d</text>
	
		<text transform="matrix(0.9741 -0.226 0.226 0.9741 191.9227 371.5452)" fill="#787878" font-family="'Roboto-Regular'" font-size="12px"> </text>
	
		<text transform="matrix(0.9667 -0.2561 0.2561 0.9667 194.9806 370.8692)" fill="#787878" font-family="'Roboto-Regular'" font-size="12px">B</text>
	
		<text transform="matrix(0.9551 -0.2962 0.2962 0.9551 202.4016 368.8882)" fill="#787878" font-family="'Roboto-Regular'" font-size="12px">a</text>
	
		<text transform="matrix(0.9426 -0.3338 0.3338 0.9426 208.8265 366.8923)" fill="#787878" font-family="'Roboto-Regular'" font-size="12px">n</text>
	
		<text transform="matrix(0.929 -0.3701 0.3701 0.929 215.261 364.6035)" fill="#787878" font-family="'Roboto-Regular'" font-size="12px">k</text>
	
		<text transform="matrix(0.9183 -0.396 0.396 0.9183 221.0299 362.2804)" fill="#787878" font-family="'Roboto-Regular'" font-size="12px"> </text>
	
		<text transform="matrix(0.9092 -0.4163 0.4163 0.9092 223.8523 361.0697)" fill="#787878" font-family="'Roboto-Regular'" font-size="12px">f</text>
	
		<text transform="matrix(0.8941 -0.4479 0.4479 0.8941 227.8171 359.2763)" fill="#787878" font-family="'Roboto-Regular'" font-size="12px">o</text>
	
		<text transform="matrix(0.8777 -0.4793 0.4793 0.8777 234.0862 356.1058)" fill="#787878" font-family="'Roboto-Regular'" font-size="12px">r</text>
	
		<text transform="matrix(0.8663 -0.4995 0.4995 0.8663 237.7434 354.1006)" fill="#787878" font-family="'Roboto-Regular'" font-size="12px"> </text>
	
		<text transform="matrix(0.8461 -0.533 0.533 0.8461 240.5219 352.5562)" fill="#787878" font-family="'Roboto-Regular'" font-size="12px">N</text>
	
		<text transform="matrix(0.8171 -0.5766 0.5766 0.8171 247.9739 347.8213)" fill="#787878" font-family="'Roboto-Regular'" font-size="12px">e</text>
	
		<text transform="matrix(0.7833 -0.6217 0.6217 0.7833 253.4144 344.0221)" fill="#787878" font-family="'Roboto-Regular'" font-size="12px">w</text>
	
		<text transform="matrix(0.7538 -0.6571 0.6571 0.7538 260.6044 338.2213)" fill="#787878" font-family="'Roboto-Regular'" font-size="12px"> </text>
	
		<text transform="matrix(0.7263 -0.6873 0.6873 0.7263 263.0453 336.146)" fill="#787878" font-family="'Roboto-Regular'" font-size="12px">Y</text>
	
		<text transform="matrix(0.6848 -0.7287 0.7287 0.6848 268.4744 330.9916)" fill="#787878" font-family="'Roboto-Regular'" font-size="12px">o</text>
	
		<text transform="matrix(0.6489 -0.7609 0.7609 0.6489 273.3182 325.7786)" fill="#787878" font-family="'Roboto-Regular'" font-size="12px">r</text>
	
		<text transform="matrix(0.613 -0.7901 0.7901 0.613 276.1069 322.538)" fill="#787878" font-family="'Roboto-Regular'" font-size="12px">k</text>
	
		<text transform="matrix(0.5783 -0.8158 0.8158 0.5783 279.9452 317.5305)" fill="#787878" font-family="'Roboto-Regular'" font-size="12px"> </text>
	
		<text transform="matrix(0.534 -0.8455 0.8455 0.534 281.869 314.9192)" fill="#787878" font-family="'Roboto-Regular'" font-size="12px">C</text>
	
		<text transform="matrix(0.4864 -0.8737 0.8737 0.4864 286.1257 308.038)" fill="#787878" font-family="'Roboto-Regular'" font-size="12px">i</text>
	
		<text transform="matrix(0.4542 -0.8909 0.8909 0.4542 287.6443 305.3233)" fill="#787878" font-family="'Roboto-Regular'" font-size="12px">t</text>
	
		<text transform="matrix(0.407 -0.9134 0.9134 0.407 289.5534 301.6141)" fill="#787878" font-family="'Roboto-Regular'" font-size="12px">y</text>
	
		<text transform="matrix(0.3668 -0.9303 0.9303 0.3668 291.9089 296.2179)" fill="#787878" font-family="'Roboto-Regular'" font-size="12px"> </text>
</g>
<style>
#g-plate-desktop_tablet-300-img rect, #g-plate-desktop_tablet-300-img circle, #g-plate-desktop_tablet-300-img path, #g-plate-desktop_tablet-300-img line, #g-plate-desktop_tablet-300-img polyline { vector-effect: non-scaling-stroke; }
</style>
</svg>

