<?xml version="1.0" encoding="utf-8"?>
<!-- Generator: Adobe Illustrator 23.1.1, SVG Export Plug-In . SVG Version: 6.00 Build 0)  -->
<svg version="1.2" baseProfile="tiny" id="g-plate-mobile-img" xmlns="http://www.w3.org/2000/svg" xmlns:xlink="http://www.w3.org/1999/xlink"
	 x="0px" y="0px" viewBox="0 0 300 400" xml:space="preserve">
<g>
	<g id="layer1_9_" transform="translate(-72.047241,-226.18111)">
		<g id="g3176_9_">
			<linearGradient id="SVGID_1_" gradientUnits="userSpaceOnUse" x1="158.3854" y1="382.4475" x2="336.9326" y2="543.846">
				<stop  offset="0" style="stop-color:#FCFDFF"/>
				<stop  offset="1" style="stop-color:#F0EFEF"/>
			</linearGradient>
			<linearGradient id="SVGID_2_" gradientUnits="userSpaceOnUse" x1="157.8049" y1="381.9228" x2="337.258" y2="544.1402">
				<stop  offset="0" style="stop-color:#F0EFEF"/>
				<stop  offset="1" style="stop-color:#FCFDFF"/>
			</linearGradient>
			<path fill-rule="evenodd" fill="url(#SVGID_1_)" stroke="url(#SVGID_2_)" stroke-width="1.6081" d="M233.018,306.278
				l-0.267,143.282c0,0-115.608,54.657-128.567,60.783c23.209,45.647,70.626,76.921,125.349,76.912
				c77.602-0.011,140.501-62.92,140.49-140.511c0-0.014,0-0.028,0-0.041C370.011,370.291,308.99,308.138,233.018,306.278z"/>
			<linearGradient id="SVGID_3_" gradientUnits="userSpaceOnUse" x1="298.3902" y1="509.3727" x2="183.907" y2="405.1226">
				<stop  offset="0" style="stop-color:#EBEBEB"/>
				<stop  offset="1" style="stop-color:#FFFFFF"/>
			</linearGradient>
			<path fill-rule="evenodd" fill="#F5F5F5" stroke="url(#SVGID_3_)" stroke-width="5.4046" d="M233.015,355.16
				c-0.029-0.001-0.059-0.001-0.089-0.002l-0.176,94.401c0,0-46.81,22.131-84.197,39.806c15.325,29.154,45.882,49.034,81.079,49.025
				c50.555-0.012,91.528-41.044,91.516-91.647c0-0.015,0-0.03,0-0.045C321.137,397.245,281.983,356.952,233.015,355.16z"/>
		</g>
	</g>
	<linearGradient id="SVGID_4_" gradientUnits="userSpaceOnUse" x1="160.688" y1="223.3609" x2="160.688" y2="223.3609">
		<stop  offset="0" style="stop-color:#EBEBEB"/>
		<stop  offset="1" style="stop-color:#FFFFFF"/>
	</linearGradient>
	<path fill-rule="evenodd" fill="#F5F5F5" stroke="url(#SVGID_4_)" stroke-width="5.4046" d="M160.688,223.361"/>
	<g id="layer1_8_" transform="translate(-72.047241,-226.18111)">
		<g id="g3176_8_">
			<linearGradient id="SVGID_5_" gradientUnits="userSpaceOnUse" x1="100.0877" y1="349.721" x2="211.4779" y2="450.4128">
				<stop  offset="0" style="stop-color:#FCFDFF"/>
				<stop  offset="1" style="stop-color:#F0EFEF"/>
			</linearGradient>
			<linearGradient id="SVGID_6_" gradientUnits="userSpaceOnUse" x1="99.6846" y1="349.2947" x2="212.0417" y2="450.8604">
				<stop  offset="0" style="stop-color:#F0EFEF"/>
				<stop  offset="1" style="stop-color:#FCFDFF"/>
			</linearGradient>
			<path fill-rule="evenodd" fill="url(#SVGID_5_)" stroke="url(#SVGID_6_)" stroke-width="1.6081" d="M218.088,296.126
				c-1.172-0.029-2.347-0.044-3.526-0.044c-77.602,0.011-140.501,62.92-140.49,140.511c0,0.014,0,0.028,0,0.041
				c0.003,22.876,5.479,44.472,15.183,63.557l128.567-60.783L218.088,296.126z"/>
			<linearGradient id="SVGID_7_" gradientUnits="userSpaceOnUse" x1="186.2911" y1="421.9771" x2="139.7503" y2="379.5965">
				<stop  offset="0" style="stop-color:#EBEBEB"/>
				<stop  offset="1" style="stop-color:#FFFFFF"/>
			</linearGradient>
			<path fill-rule="evenodd" fill="#F5F5F5" stroke="url(#SVGID_7_)" stroke-width="5.4046" d="M217.997,345.006
				c-1.108-0.04-2.221-0.061-3.338-0.061c-50.555,0.012-91.528,41.044-91.516,91.647c0,0.015,0,0.03,0,0.045
				c0.004,15.372,3.795,29.856,10.482,42.576"/>
		</g>
	</g>
	<linearGradient id="SVGID_8_" gradientUnits="userSpaceOnUse" x1="133.0618" y1="206.1497" x2="133.0618" y2="206.1497">
		<stop  offset="0" style="stop-color:#EBEBEB"/>
		<stop  offset="1" style="stop-color:#FFFFFF"/>
	</linearGradient>
	<path fill-rule="evenodd" fill="#F5F5F5" stroke="url(#SVGID_8_)" stroke-width="5.4046" d="M133.062,206.15"/>
	<g id="layer1_6_" transform="translate(-72.047241,-226.18111)">
		<g id="g3176_6_">
			<linearGradient id="SVGID_9_" gradientUnits="userSpaceOnUse" x1="300.1982" y1="512.1481" x2="185.7149" y2="407.898">
				<stop  offset="0" style="stop-color:#EBEBEB"/>
				<stop  offset="1" style="stop-color:#FFFFFF"/>
			</linearGradient>
			<path fill-rule="evenodd" fill="#F5F5F5" stroke="url(#SVGID_9_)" stroke-width="5.4046" d="M234.823,357.936
				c-0.029-0.001-0.059-0.001-0.089-0.002l-0.176,94.401c0,0-46.81,22.131-84.197,39.806c15.325,29.154,45.882,49.034,81.079,49.025
				c50.555-0.013,91.528-41.044,91.516-91.647c0-0.015,0-0.03,0-0.045C322.945,400.021,283.791,359.727,234.823,357.936z"/>
		</g>
	</g>
	<polyline fill="none" stroke="#FFFBF0" stroke-width="12" stroke-miterlimit="10" points="160.687,74.797 161.795,224.658 
		29.904,286.982 	"/>
	<path fill-rule="evenodd" fill="none" d="M-129.578,157.285c-28.595,64.225,101.112,49.282,152.609,141.243
		c68.298,121.964,238.195,83.261,270.259-6.021"/>
	
		<text transform="matrix(0.9841 0.1935 -0.1929 0.9812 120.0806 371.9353)" fill="#787878" font-family="'Roboto-Regular'" font-size="12px">S</text>
	
		<text transform="matrix(0.992 0.1477 -0.1473 0.9891 127.3161 373.3481)" fill="#787878" font-family="'Roboto-Regular'" font-size="12px">o</text>
	
		<text transform="matrix(0.9975 0.1041 -0.1038 0.9946 134.3262 374.3836)" fill="#787878" font-family="'Roboto-Regular'" font-size="12px">u</text>
	
		<text transform="matrix(1.0005 0.0699 -0.0697 0.9976 141.0992 375.0655)" fill="#787878" font-family="'Roboto-Regular'" font-size="12px">r</text>
	
		<text transform="matrix(1.0022 0.0372 -0.0371 0.9993 145.3253 375.3768)" fill="#787878" font-family="'Roboto-Regular'" font-size="12px">c</text>
	
		<text transform="matrix(1.0029 -0.0024 0.0024 1 151.8305 375.6135)" fill="#787878" font-family="'Roboto-Regular'" font-size="12px">e</text>
	
		<text transform="matrix(1.0024 -0.031 0.0309 0.9995 158.3451 375.5721)" fill="#787878" font-family="'Roboto-Regular'" font-size="12px">:</text>
	
		<text transform="matrix(1.0017 -0.0491 0.0489 0.9988 161.3604 375.4768)" fill="#787878" font-family="'Roboto-Regular'" font-size="12px"> </text>
	
		<text transform="matrix(0.9999 -0.0782 0.078 0.997 164.4756 375.3491)" fill="#787878" font-family="'Roboto-Regular'" font-size="12px">F</text>
	
		<text transform="matrix(0.9959 -0.1187 0.1184 0.993 171.3173 374.813)" fill="#787878" font-family="'Roboto-Regular'" font-size="12px">o</text>
	
		<text transform="matrix(0.9902 -0.1594 0.1589 0.9873 178.3369 373.9713)" fill="#787878" font-family="'Roboto-Regular'" font-size="12px">o</text>
	
		<text transform="matrix(0.9829 -0.1995 0.1989 0.98 185.329 372.8406)" fill="#787878" font-family="'Roboto-Regular'" font-size="12px">d</text>
	
		<text transform="matrix(0.9767 -0.2278 0.2271 0.9739 192.1043 371.4359)" fill="#787878" font-family="'Roboto-Regular'" font-size="12px"> </text>
	
		<text transform="matrix(0.9691 -0.2581 0.2573 0.9663 195.1733 370.7541)" fill="#787878" font-family="'Roboto-Regular'" font-size="12px">B</text>
	
		<text transform="matrix(0.9574 -0.2985 0.2977 0.9547 202.631 368.7531)" fill="#787878" font-family="'Roboto-Regular'" font-size="12px">a</text>
	
		<text transform="matrix(0.9449 -0.3362 0.3352 0.9421 209.0515 366.7478)" fill="#787878" font-family="'Roboto-Regular'" font-size="12px">n</text>
	
		<text transform="matrix(0.9311 -0.3727 0.3717 0.9284 215.501 364.4444)" fill="#787878" font-family="'Roboto-Regular'" font-size="12px">k</text>
	
		<text transform="matrix(0.9202 -0.3987 0.3976 0.9176 221.2865 362.1008)" fill="#787878" font-family="'Roboto-Regular'" font-size="12px"> </text>
	
		<text transform="matrix(0.9111 -0.4192 0.418 0.9084 224.121 360.8795)" fill="#787878" font-family="'Roboto-Regular'" font-size="12px">f</text>
	
		<text transform="matrix(0.8958 -0.451 0.4497 0.8932 228.0944 359.074)" fill="#787878" font-family="'Roboto-Regular'" font-size="12px">o</text>
	
		<text transform="matrix(0.8792 -0.4826 0.4812 0.8766 234.3769 355.8805)" fill="#787878" font-family="'Roboto-Regular'" font-size="12px">r</text>
	
		<text transform="matrix(0.8676 -0.503 0.5015 0.8651 238.046 353.8582)" fill="#787878" font-family="'Roboto-Regular'" font-size="12px"> </text>
	
		<text transform="matrix(0.8473 -0.5366 0.535 0.8448 240.8118 352.3135)" fill="#787878" font-family="'Roboto-Regular'" font-size="12px">N</text>
	
		<text transform="matrix(0.8179 -0.5804 0.5787 0.8156 248.2691 347.5522)" fill="#787878" font-family="'Roboto-Regular'" font-size="12px">e</text>
	
		<text transform="matrix(0.7837 -0.6258 0.624 0.7814 253.7217 343.7209)" fill="#787878" font-family="'Roboto-Regular'" font-size="12px">w</text>
	
		<text transform="matrix(0.7538 -0.6615 0.6596 0.7516 260.926 337.8711)" fill="#787878" font-family="'Roboto-Regular'" font-size="12px"> </text>
	
		<text transform="matrix(0.7261 -0.6918 0.6898 0.724 263.3537 335.7942)" fill="#787878" font-family="'Roboto-Regular'" font-size="12px">Y</text>
	
		<text transform="matrix(0.6837 -0.7337 0.7316 0.6817 268.8135 330.5732)" fill="#787878" font-family="'Roboto-Regular'" font-size="12px">o</text>
	
		<text transform="matrix(0.6476 -0.7658 0.7636 0.6457 273.6234 325.3548)" fill="#787878" font-family="'Roboto-Regular'" font-size="12px">r</text>
	
		<text transform="matrix(0.611 -0.7953 0.793 0.6092 276.4291 322.0662)" fill="#787878" font-family="'Roboto-Regular'" font-size="12px">k</text>
	
		<text transform="matrix(0.576 -0.821 0.8186 0.5743 280.2437 317.0375)" fill="#787878" font-family="'Roboto-Regular'" font-size="12px"> </text>
	
		<text transform="matrix(0.5311 -0.8508 0.8483 0.5295 282.1589 314.4117)" fill="#787878" font-family="'Roboto-Regular'" font-size="12px">C</text>
	
		<text transform="matrix(0.4828 -0.8791 0.8765 0.4814 286.3983 307.4758)" fill="#787878" font-family="'Roboto-Regular'" font-size="12px">i</text>
	
		<text transform="matrix(0.4504 -0.8961 0.8935 0.4491 287.8915 304.7702)" fill="#787878" font-family="'Roboto-Regular'" font-size="12px">t</text>
	
		<text transform="matrix(0.4025 -0.9186 0.9159 0.4013 289.7963 301.0227)" fill="#787878" font-family="'Roboto-Regular'" font-size="12px">y</text>
	
		<text transform="matrix(0.3679 -0.933 0.9303 0.3668 292.1039 295.6212)" fill="#787878" font-family="'Roboto-Regular'" font-size="12px"> </text>
</g>
<style>
#g-plate-mobile-img rect, #g-plate-mobile-img circle, #g-plate-mobile-img path, #g-plate-mobile-img line, #g-plate-mobile-img polyline { vector-effect: non-scaling-stroke; }
</style>
</svg>

