<?xml version="1.0" encoding="utf-8"?>
<!-- Generator: Adobe Illustrator 23.1.1, SVG Export Plug-In . SVG Version: 6.00 Build 0)  -->
<svg version="1.2" baseProfile="tiny" id="g-pantries-tablet-300-img" xmlns="http://www.w3.org/2000/svg" xmlns:xlink="http://www.w3.org/1999/xlink"
	 x="0px" y="0px" viewBox="0 0 300 1250" xml:space="preserve">
<g>
	<path fill="#D495AB" d="M68.408,198.872h42.235v55.164H68.408V198.872z M89.058,182.131l21.585,16.776l-42.235,0.248
		L89.058,182.131z"/>
	<rect x="2.492" y="199.155" fill="#F8B4CC" width="65.915" height="54.882"/>
	<polygon fill="#8F5066" points="68.477,199.154 47.843,182.131 89.111,182.131 	"/>
	<polygon fill="#8F5066" points="23.126,182.131 2.493,199.154 43.76,199.154 	"/>
	<rect x="23.126" y="182.13" fill="#8F5066" width="45.351" height="17.024"/>
	<polygon fill="#D495AB" points="95.246,238.634 8.535,256.811 8.535,220.458 	"/>
	<rect x="24.013" y="223.232" fill="#8F5066" width="22.875" height="30.804"/>
	<rect x="46.736" y="223.203" fill="#F8B4CC" width="21.52" height="30.804"/>
	<path fill="#D495AB" d="M162.138,198.872h42.235v55.164h-42.235V198.872z M182.788,182.131l21.585,16.776l-42.235,0.248
		L182.788,182.131z"/>
	<rect x="96.222" y="199.155" fill="#F8B4CC" width="65.915" height="54.882"/>
	<polygon fill="#8F5066" points="162.207,199.154 141.573,182.131 182.841,182.131 	"/>
	<polygon fill="#8F5066" points="116.856,182.131 96.223,199.154 137.49,199.154 	"/>
	<rect x="116.856" y="182.13" fill="#8F5066" width="45.351" height="17.024"/>
	<polygon fill="#D495AB" points="188.976,238.634 102.265,256.811 102.265,220.458 	"/>
	<rect x="117.743" y="223.232" fill="#8F5066" width="22.875" height="30.804"/>
	<rect x="140.466" y="223.203" fill="#F8B4CC" width="21.52" height="30.804"/>
	<path fill="#D495AB" d="M255.868,198.872h42.234v55.164h-42.234V198.872z M276.518,182.131l21.585,16.776l-42.235,0.248
		L276.518,182.131z"/>
	<rect x="189.952" y="199.155" fill="#F8B4CC" width="65.916" height="54.882"/>
	<polygon fill="#8F5066" points="255.937,199.154 235.304,182.131 276.57,182.131 	"/>
	<polygon fill="#8F5066" points="210.586,182.131 189.953,199.154 231.22,199.154 	"/>
	<rect x="210.587" y="182.13" fill="#8F5066" width="45.35" height="17.024"/>
	<polygon fill="#D495AB" points="282.706,238.634 195.995,256.811 195.995,220.458 	"/>
	<rect x="211.472" y="223.232" fill="#8F5066" width="22.876" height="30.804"/>
	<rect x="234.196" y="223.203" fill="#F8B4CC" width="21.52" height="30.804"/>
	<rect style="opacity:0.7;" x="2.493" y="178.897" fill="#FFFCF1" width="295.947" height="78.748"/>
	<path fill="#D6CC5A" d="M68.745,291.891h42.235v55.164H68.745V291.891z M89.395,275.149l21.585,16.776l-42.235,0.247
		L89.395,275.149z"/>
	<rect x="2.829" y="292.173" fill="#FFF68F" width="65.915" height="54.882"/>
	<polygon fill="#BFA152" points="68.814,292.173 48.18,275.149 89.447,275.149 	"/>
	<polygon fill="#BFA152" points="23.463,275.149 2.829,292.173 44.097,292.173 	"/>
	<rect x="23.463" y="275.149" fill="#BFA152" width="45.351" height="17.024"/>
	<polygon fill="#D6CC5A" points="95.734,331.683 9.023,349.859 9.023,313.506 	"/>
	<rect x="47.224" y="316.251" fill="#FFF68F" width="21.52" height="30.804"/>
	<rect x="24.35" y="316.251" fill="#BFA152" width="22.875" height="30.804"/>
	<path fill="#D6CC5A" d="M162.475,291.891h42.235v55.164h-42.235V291.891z M183.125,275.149l21.585,16.776l-42.235,0.247
		L183.125,275.149z"/>
	<rect x="96.559" y="292.173" fill="#FFF68F" width="65.915" height="54.882"/>
	<polygon fill="#BFA152" points="162.544,292.173 141.91,275.149 183.177,275.149 	"/>
	<polygon fill="#BFA152" points="117.193,275.149 96.559,292.173 137.827,292.173 	"/>
	<rect x="117.193" y="275.149" fill="#BFA152" width="45.351" height="17.024"/>
	<polygon fill="#D6CC5A" points="189.464,331.683 102.753,349.859 102.753,313.506 	"/>
	<rect x="140.954" y="316.251" fill="#FFF68F" width="21.52" height="30.804"/>
	<rect x="118.08" y="316.251" fill="#BFA152" width="22.875" height="30.804"/>
	<path fill="#D6CC5A" d="M256.205,291.891h42.234v55.164h-42.234V291.891z M276.855,275.149l21.585,16.776l-42.235,0.247
		L276.855,275.149z"/>
	<rect x="190.289" y="292.173" fill="#FFF68F" width="65.916" height="54.882"/>
	<polygon fill="#BFA152" points="256.273,292.173 235.641,275.149 276.907,275.149 	"/>
	<polygon fill="#BFA152" points="210.923,275.149 190.289,292.173 231.557,292.173 	"/>
	<rect x="210.924" y="275.149" fill="#BFA152" width="45.35" height="17.024"/>
	<polygon fill="#D6CC5A" points="283.195,331.683 196.484,349.859 196.484,313.506 	"/>
	<rect x="234.685" y="316.251" fill="#FFF68F" width="21.52" height="30.804"/>
	<rect x="211.809" y="316.251" fill="#BFA152" width="22.876" height="30.804"/>
	<polyline style="opacity:0.7;" fill="#FFFCF1" points="2.492,272.128 298.44,272.128 298.44,350.877 2.492,350.877 	"/>
	<path fill="#46B5CC" d="M68.576,109.46h42.235v55.164H68.576V109.46z M89.226,92.719l21.585,16.776l-42.235,0.248L89.226,92.719z"
		/>
	<rect x="2.661" y="109.742" fill="#B1DFE9" width="65.915" height="54.882"/>
	<polygon fill="#00657A" points="68.645,109.742 48.012,92.719 89.279,92.719 	"/>
	<polygon fill="#00657A" points="23.295,92.719 2.661,109.742 43.928,109.742 	"/>
	<rect x="23.294" y="92.719" fill="#00657A" width="45.351" height="17.024"/>
	<rect x="24.181" y="133.82" fill="#00657A" width="22.875" height="30.804"/>
	<path fill="#FFF264" d="M43.651,147.946c-1.775,0-1.778,2.759,0,2.759C45.426,150.705,45.429,147.946,43.651,147.946"/>
	<path fill="#46B5CC" d="M162.306,109.46h42.235v55.164h-42.235V109.46z M182.956,92.719l21.585,16.776l-42.235,0.248
		L182.956,92.719z"/>
	<rect x="96.391" y="109.742" fill="#B1DFE9" width="65.915" height="54.882"/>
	<polygon fill="#00657A" points="162.375,109.742 141.742,92.719 183.009,92.719 	"/>
	<polygon fill="#00657A" points="117.025,92.719 96.391,109.742 137.658,109.742 	"/>
	<rect x="117.024" y="92.719" fill="#00657A" width="45.351" height="17.024"/>
	<rect x="117.911" y="133.82" fill="#00657A" width="22.875" height="30.804"/>
	<path fill="#FFF264" d="M137.381,147.946c-1.775,0-1.778,2.759,0,2.759C139.156,150.705,139.159,147.946,137.381,147.946"/>
	<polyline fill="#46B5CC" points="298.27,164.624 256.036,164.624 256.036,109.46 298.27,109.46 	"/>
	<polyline fill="#46B5CC" points="298.271,109.494 256.036,109.742 276.687,92.719 298.271,109.494 	"/>
	<rect x="190.121" y="109.742" fill="#B1DFE9" width="65.916" height="54.882"/>
	<polygon fill="#00657A" points="256.105,109.742 235.472,92.719 276.739,92.719 	"/>
	<polygon fill="#00657A" points="210.755,92.719 190.121,109.742 231.388,109.742 	"/>
	<rect x="210.755" y="92.719" fill="#00657A" width="45.35" height="17.024"/>
	<rect x="211.641" y="133.82" fill="#00657A" width="22.876" height="30.804"/>
	<path fill="#FFF264" d="M231.111,147.946c-1.775,0-1.778,2.759,0,2.759C232.886,150.705,232.889,147.946,231.111,147.946"/>
	<path fill="#D495AB" d="M67.815,532.94h42.235v55.164H67.815V532.94z M88.465,516.199l21.585,16.776l-42.235,0.248L88.465,516.199z
		"/>
	<rect x="1.9" y="533.223" fill="#F8C1D5" width="65.915" height="54.882"/>
	<polygon fill="#8F5066" points="67.884,533.222 47.251,516.199 88.518,516.199 	"/>
	<polygon fill="#8F5066" points="22.533,516.199 1.9,533.222 43.167,533.222 	"/>
	<rect x="22.533" y="516.198" fill="#8F5066" width="45.351" height="17.024"/>
	<polygon fill="#D495AB" points="94.653,572.702 7.942,590.879 7.942,554.526 	"/>
	<rect x="23.42" y="557.301" fill="#8F5066" width="22.875" height="30.804"/>
	<rect x="46.143" y="557.271" fill="#F8C1D5" width="21.52" height="30.804"/>
	<path fill="#D495AB" d="M161.545,532.94h42.235v55.164h-42.235V532.94z M182.195,516.199l21.585,16.776l-42.235,0.248
		L182.195,516.199z"/>
	<rect x="95.63" y="533.223" fill="#F8C1D5" width="65.915" height="54.882"/>
	<polygon fill="#8F5066" points="161.614,533.222 140.981,516.199 182.248,516.199 	"/>
	<polygon fill="#8F5066" points="116.263,516.199 95.63,533.222 136.897,533.222 	"/>
	<rect x="116.263" y="516.198" fill="#8F5066" width="45.351" height="17.024"/>
	<polygon fill="#D495AB" points="188.383,572.702 101.672,590.879 101.672,554.526 	"/>
	<rect x="117.15" y="557.301" fill="#8F5066" width="22.875" height="30.804"/>
	<rect x="139.873" y="557.271" fill="#F8C1D5" width="21.52" height="30.804"/>
	<path fill="#D495AB" d="M67.815,625.222h42.234v55.164H67.815V625.222z M88.466,608.48l21.585,16.776l-42.235,0.248L88.466,608.48z
		"/>
	<rect x="1.9" y="625.504" fill="#F8C1D5" width="65.916" height="54.882"/>
	<polygon fill="#8F5066" points="67.884,625.504 47.251,608.48 88.518,608.48 	"/>
	<polygon fill="#8F5066" points="22.533,608.48 1.9,625.504 43.167,625.504 	"/>
	<rect x="22.534" y="608.48" fill="#8F5066" width="45.35" height="17.024"/>
	<polygon fill="#D495AB" points="94.653,664.984 7.942,683.16 7.942,646.807 	"/>
	<rect x="23.419" y="649.582" fill="#8F5066" width="22.876" height="30.804"/>
	<rect x="46.143" y="649.552" fill="#F8C1D5" width="21.52" height="30.804"/>
	<path fill="#D495AB" d="M163.485,626.664h42.235v55.164h-42.235V626.664z M184.135,609.922l21.585,16.776l-42.235,0.247
		L184.135,609.922z"/>
	<rect x="97.57" y="626.946" fill="#F8C1D5" width="65.915" height="54.882"/>
	<polygon fill="#8F5066" points="163.554,626.946 142.921,609.922 184.188,609.922 	"/>
	<polygon fill="#8F5066" points="118.203,609.922 97.57,626.946 138.837,626.946 	"/>
	<rect x="118.203" y="609.922" fill="#8F5066" width="45.351" height="17.024"/>
	<polygon fill="#D495AB" points="190.475,666.456 103.764,684.632 103.764,648.279 	"/>
	<rect x="141.965" y="651.023" fill="#F8C1D5" width="21.52" height="30.804"/>
	<rect x="119.09" y="651.023" fill="#8F5066" width="22.875" height="30.804"/>
	<path fill="#D6CC5A" d="M67.941,720.528h42.235v55.164H67.941V720.528z M88.591,703.786l21.585,16.776l-42.235,0.247
		L88.591,703.786z"/>
	<rect x="2.025" y="720.81" fill="#FFF68F" width="65.915" height="54.882"/>
	<polygon fill="#BFA152" points="68.01,720.81 47.376,703.787 88.644,703.787 	"/>
	<polygon fill="#BFA152" points="22.659,703.786 2.026,720.81 43.293,720.81 	"/>
	<rect x="22.659" y="703.786" fill="#BFA152" width="45.351" height="17.024"/>
	<polygon fill="#D6CC5A" points="94.931,760.32 8.219,778.497 8.219,742.143 	"/>
	<rect x="46.42" y="744.888" fill="#FFF68F" width="21.52" height="30.804"/>
	<rect x="23.546" y="744.888" fill="#BFA152" width="22.875" height="30.804"/>
	<path fill="#D6CC5A" d="M161.671,720.528h42.234v55.164h-42.234V720.528z M182.321,703.786l21.585,16.776l-42.235,0.247
		L182.321,703.786z"/>
	<rect x="95.755" y="720.81" fill="#FFF68F" width="65.916" height="54.882"/>
	<polygon fill="#BFA152" points="161.74,720.81 141.107,703.787 182.373,703.787 	"/>
	<polygon fill="#BFA152" points="116.389,703.786 95.756,720.81 137.023,720.81 	"/>
	<rect x="116.39" y="703.786" fill="#BFA152" width="45.35" height="17.024"/>
	<polygon fill="#D6CC5A" points="188.661,760.32 101.95,778.497 101.95,742.143 	"/>
	<rect x="140.151" y="744.888" fill="#FFF68F" width="21.52" height="30.804"/>
	<rect x="117.275" y="744.888" fill="#BFA152" width="22.876" height="30.804"/>
	<rect style="opacity:0.7;" x="2.025" y="702.74" fill="#FFFCF1" width="202.601" height="78.748"/>
	
		<rect x="1.787" y="709.616" fill="none" stroke="#D495AB" stroke-linecap="round" stroke-linejoin="round" stroke-miterlimit="10" width="0.007" height="0.007"/>
	<g>
		<g>
			<path fill="#FEFEFE" d="M293.235,662.739c-1.751,0.477-3.071,1.448-3.883,3.096c-0.09,0.182-0.363,0.385-0.548,0.383
				c-0.234-0.002-0.475-0.191-0.695-0.329c-0.097-0.061-0.15-0.193-0.26-0.342c-0.982,1.02-2.227,0.842-3.37,0.583
				c-1.458-0.33-1.082-1.845-1.642-3.012c-0.785,0.112-1.66,0.206-2.517,0.386c-0.175,0.037-0.346,0.385-0.403,0.618
				c-0.075,0.307-0.035,0.642-0.044,0.965c0.106,0.687-0.521,0.857-0.866,1.225c0.017,0.59,0.033,1.179,0.05,1.768
				c0.07,0.269,0.14,0.537,0.209,0.806c0.012,0.536,0.025,1.072,0.038,1.609c0.554,0.384,0.218,0.918,0.232,1.393
				c0.009,0.432,0.017,0.864,0.025,1.295l0.171,0.468c0.526,1.44,0.998,2.903,1.598,4.312c0.361,0.848,0.383,1.067-0.409,1.539
				c-0.231,0.137-0.459,0.279-0.689,0.418c0.231,0.098,0.463,0.196,0.693,0.295l0.011,0.007c0.455,0.132,0.937,0.208,1.358,0.41
				c0.536,0.258,0.606,0.953,0.326,1.535c-0.134,0.279-0.182,0.674-0.098,0.968c0.275,0.974,0.033,1.843-0.696,2.192
				c-0.29,0.011-0.58,0.022-0.87,0.033c-0.107-0.074-0.214-0.148-0.32-0.221c-0.148-0.002-0.297-0.004-0.445-0.006
				c-0.001,0.05-0.003,0.099-0.002,0.149c0.027,1.158,0.027,1.158-1.198,1.376c0.07,0.294,0.121,0.589,0.211,0.872
				c0.179,0.567,0.147,1.101-0.371,1.448c-0.43,0.288-0.86,0.227-1.331-0.092c-1.255-0.852-1.382-2.141-1.486-3.464
				c-0.034-0.436,0.205-0.981-0.434-1.202c-0.449,0.155-0.89,0.351-1.351,0.451c-0.391,0.085-0.649-0.047-0.789-0.532
				c-0.344-1.191-0.791-2.353-1.205-3.523c-0.018-0.05-0.123-0.068-0.188-0.101l-0.112,0.891c-0.032,0.197-0.064,0.394-0.096,0.591
				c-0.12,0.123-0.239,0.247-0.358,0.37c0.204,0.425,0.406,0.852,0.613,1.276c0.054,0.109,0.159,0.203,0.185,0.316
				c0.536,2.41,1.683,4.556,2.807,6.725c0.572,1.104,1.04,2.246,0.992,3.617c-0.046,1.349,0.432,2.708,0.574,4.073
				c0.089,0.854,0.019,1.731-0.051,2.593c-0.063,0.772-0.74,0.877-1.324,1.051c-0.048,0.368-0.095,0.737-0.143,1.105
				c0.478,0.148,0.948,0.338,1.436,0.433c1.106,0.217,2.167,0.502,3.001,1.365c-0.274,0.568-0.628,0.836-1.275,0.816
				c-1.515-0.048-3.033,0.005-4.549-0.032c-0.326-0.009-0.883-0.171-0.926-0.356c-0.108-0.472-0.043-1.011,0.067-1.498
				c0.057-0.253,0.357-0.449,0.547-0.672c-0.089-0.375-0.179-0.75-0.269-1.125c-0.559-0.006-1.128,0.049-1.676-0.035
				c-0.585-0.09-0.86-0.454-0.869-1.126c-0.026-2.154-0.132-4.308-0.215-6.461c-0.006-0.166-0.055-0.341-0.127-0.491
				c-0.633-1.32-1.277-2.635-1.917-3.951c-0.083-0.008-0.22-0.05-0.239-0.02c-0.54,0.898-1.075,1.8-1.597,2.709
				c-1.158,2.017-2.307,4.04-3.464,6.058c-0.389,0.678-0.781,1.355-1.194,2.019c-0.422,0.678-1.063,0.744-1.673,0.222
				c-0.278-0.238-0.594-0.431-0.893-0.645c-0.06,0.155-0.121,0.311-0.182,0.466c0.542,0.781,1.104,1.549,1.617,2.348
				c0.241,0.377,0.454,0.798,0.558,1.228c0.121,0.505-0.745,0.992-1.233,0.638c-1.123-0.815-2.25-1.646-3.245-2.607
				c-0.801-0.773-0.438-1.72,0.658-2.075c0.029-0.483,0.059-0.966,0.088-1.449c-0.576-0.318-1.156-0.631-1.729-0.955
				c-1.039-0.587-1.081-1.134-0.298-2.032c0.879-1.008,1.774-2.023,2.487-3.146c0.729-1.146,1.247-2.426,1.852-3.651
				c0.821-1.661,1.63-3.329,2.46-4.987c0.259-0.517,0.568-1.009,0.856-1.513c-0.502-1.866-0.008-3.718,0.194-5.551
				c0.119-1.08,0.673-2.135,1.144-3.15c0.764-1.644,1.506-3.317,2.47-4.844c0.965-1.528,1.713-3.222,3.108-4.469
				c0.888-0.792,1.617-1.781,2.561-2.488c1.039-0.778,2.198-1.437,3.391-1.944c0.603-0.256,1.426-0.385,2.084,0.152
				c0.541-0.04,1.089-0.036,1.62-0.13c0.846-0.149,1.712-0.282,2.508-0.583c0.392-0.148,0.738-0.61,0.946-1.013
				c0.539-1.04,1.195-1.885,2.315-2.39c0.857-0.386,1.558-1.182,2.433-1.447c1.706-0.516,3.418-0.742,4.948,0.732
				c1.403,1.352,2.271,2.867,2.206,4.824C295.08,661.561,294.513,662.391,293.235,662.739"/>
			<path fill="#D8C09B" d="M263.192,682.604c-0.501-1.866-0.008-3.718,0.194-5.551c0.119-1.08,0.673-2.136,1.144-3.15
				c0.764-1.644,1.506-3.317,2.47-4.844c0.965-1.529,1.713-3.223,3.109-4.469c0.888-0.793,1.616-1.781,2.561-2.488
				c1.038-0.777,2.198-1.437,3.391-1.944c0.603-0.256,1.426-0.385,2.083,0.151c-0.07,1.827,0.492,3.425,1.73,4.778
				c0.105,0.687-0.521,0.857-0.866,1.225c-1.571,0.948-2.293,2.566-2.763,4.152c-0.605,2.036-0.23,4.156,0.389,6.195
				c0.27,0.89,0.472,1.8,0.74,2.69c0.165,0.548,0.396,1.076,0.598,1.613c0.048,0.263,0.059,0.54,0.152,0.786
				c0.246,0.653,0.177,1.195-0.445,1.594c-0.163-0.097-0.375-0.316-0.479-0.272c-0.512,0.211-1.003,0.479-1.482,0.76
				c-0.091,0.054-0.094,0.256-0.138,0.39c-0.449,0.155-0.89,0.351-1.351,0.451c-0.391,0.085-0.649-0.047-0.789-0.532
				c-0.344-1.191-0.79-2.353-1.205-3.523c-0.018-0.05-0.123-0.068-0.188-0.101c-0.072-0.241-0.194-0.479-0.205-0.722
				c-0.03-0.706-0.014-1.414-0.017-2.121c0.003-0.658,0.028-1.318-0.003-1.974c-0.01-0.198-0.176-0.389-0.27-0.583
				c-0.001-0.691-0.002-1.382-0.003-2.073c0.091-0.105,0.183-0.211,0.274-0.317c0.102-0.694,0.205-1.388,0.308-2.081
				c0.048-0.103,0.095-0.205,0.142-0.308c0.103-0.346,0.205-0.691,0.309-1.036c0.007-0.081,0.014-0.163,0.021-0.245
				c-0.056,0.082-0.111,0.164-0.167,0.246c-0.183,0.195-0.472,0.363-0.532,0.591c-0.395,1.498-0.858,2.993-1.07,4.521
				c-0.207,1.486-0.121,3.011-0.198,4.516c-0.056,1.102-0.167,2.201-0.243,3.151c-0.377,0.222-0.593,0.349-0.81,0.476
				c-0.883,0.047-1.766,0.131-2.65,0.133C265.686,682.694,264.439,682.636,263.192,682.604"/>
			<path fill="#67522F" d="M263.192,682.604c1.247,0.032,2.494,0.09,3.74,0.088c0.884-0.002,1.767-0.086,2.65-0.133
				c0.354,0.012,0.707,0.023,1.06,0.035c-0.282,0.566-0.598,1.117-0.838,1.7c-0.339,0.828-0.629,1.676-0.927,2.52
				c-0.363,1.028-0.891,2.033-0.513,3.181c-0.082-0.008-0.22-0.05-0.239-0.02c-0.54,0.898-1.075,1.8-1.598,2.709
				c-1.158,2.017-2.307,4.04-3.464,6.058c-0.39,0.678-0.781,1.355-1.194,2.019c-0.422,0.678-1.063,0.743-1.673,0.222
				c-0.278-0.238-0.594-0.432-0.894-0.645c-0.318-0.796-0.956-1.21-1.738-1.451c-0.577-0.318-1.157-0.631-1.73-0.956
				c-1.038-0.587-1.081-1.134-0.298-2.032c0.879-1.008,1.775-2.023,2.488-3.146c0.728-1.146,1.247-2.426,1.852-3.651
				c0.821-1.661,1.63-3.329,2.46-4.987C262.596,683.599,262.906,683.108,263.192,682.604"/>
			<path fill="#DB394D" d="M279.873,665.088c-1.238-1.354-1.799-2.952-1.729-4.778c0.541-0.04,1.089-0.036,1.621-0.129
				c0.846-0.149,1.712-0.282,2.508-0.583c0.392-0.148,0.738-0.61,0.947-1.013c0.539-1.04,1.195-1.885,2.315-2.39
				c0.857-0.386,1.557-1.182,2.433-1.447c1.706-0.516,3.418-0.742,4.948,0.732c1.403,1.352,2.271,2.866,2.207,4.824
				c-0.041,1.258-0.609,2.088-1.887,2.436c-1.752,0.477-3.072,1.448-3.883,3.096c-0.09,0.182-0.363,0.385-0.548,0.383
				c-0.234-0.002-0.475-0.191-0.694-0.328c-0.097-0.061-0.15-0.193-0.261-0.343c-0.982,1.02-2.227,0.842-3.37,0.584
				c-1.457-0.33-1.081-1.845-1.641-3.012c-0.786,0.112-1.66,0.206-2.517,0.386c-0.175,0.037-0.347,0.385-0.403,0.618
				C279.842,664.43,279.883,664.764,279.873,665.088"/>
			<path fill="#4F3E24" d="M268.364,689.995c-0.378-1.149,0.15-2.154,0.513-3.182c0.298-0.844,0.589-1.692,0.927-2.519
				c0.24-0.583,0.556-1.135,0.838-1.7c0.279-0.075,0.559-0.15,0.838-0.225c0.204,0.425,0.406,0.852,0.614,1.276
				c0.054,0.11,0.159,0.203,0.184,0.316c0.536,2.41,1.683,4.555,2.807,6.725c0.572,1.104,1.04,2.246,0.992,3.617
				c-0.046,1.348,0.433,2.707,0.574,4.073c0.089,0.854,0.019,1.731-0.05,2.592c-0.063,0.772-0.741,0.877-1.324,1.052
				c-0.703,0.013-1.406,0.025-2.109,0.038c-0.559-0.006-1.128,0.049-1.676-0.035c-0.586-0.09-0.861-0.454-0.869-1.126
				c-0.026-2.154-0.132-4.308-0.216-6.461c-0.006-0.165-0.055-0.34-0.127-0.491C269.648,692.627,269.004,691.312,268.364,689.995"/>
			<path fill="#AA977B" d="M277.972,680.963c-0.202-0.537-0.433-1.065-0.598-1.613c-0.268-0.89-0.47-1.8-0.74-2.69
				c-0.619-2.04-0.994-4.159-0.389-6.196c0.47-1.585,1.192-3.203,2.763-4.151c0.017,0.59,0.033,1.179,0.049,1.768
				c0.07,0.269,0.139,0.538,0.209,0.806c0.012,0.536,0.026,1.072,0.039,1.609c0.078,0.464,0.155,0.928,0.233,1.393
				c0.008,0.432,0.017,0.864,0.026,1.295c0.056,0.156,0.113,0.312,0.17,0.468c0.525,1.44,0.998,2.903,1.598,4.312
				c0.361,0.848,0.384,1.067-0.408,1.539c-0.231,0.137-0.46,0.279-0.688,0.416c-0.073,0.079-0.148,0.16-0.222,0.241
				c-0.086,0.02-0.172,0.04-0.257,0.059c-0.102,0.093-0.204,0.185-0.306,0.277c-0.212,0.159-0.423,0.318-0.635,0.477
				C278.534,680.97,278.253,680.967,277.972,680.963"/>
			<path fill="#5F5B54" d="M275.134,703.126c0.478,0.147,0.948,0.338,1.436,0.433c1.106,0.217,2.167,0.502,3.001,1.365
				c-0.274,0.568-0.628,0.836-1.275,0.816c-1.515-0.048-3.033,0.005-4.549-0.032c-0.326-0.008-0.883-0.171-0.926-0.355
				c-0.108-0.473-0.043-1.012,0.067-1.498c0.057-0.253,0.357-0.45,0.547-0.672C274.002,703.165,274.568,703.146,275.134,703.126"/>
			<path fill="#5E5953" d="M259.121,700.804c0.542,0.781,1.104,1.549,1.616,2.348c0.242,0.377,0.455,0.798,0.558,1.228
				c0.122,0.505-0.744,0.992-1.232,0.638c-1.123-0.815-2.25-1.646-3.246-2.607c-0.801-0.773-0.438-1.72,0.657-2.075
				C257.934,700.808,258.516,700.846,259.121,700.804"/>
			<path fill="#DB394D" d="M278.815,680.974c0.212-0.159,0.423-0.318,0.635-0.477c0.102-0.092,0.203-0.185,0.306-0.277
				c0.085-0.02,0.171-0.04,0.257-0.059c0.305,0.019,0.609,0.037,0.914,0.055l0.011,0.008c0.34,0.212,0.689,0.41,1.016,0.642
				c0.248,0.175,0.467,0.393,0.747,0.633c-0.444,0.242-0.717,0.392-0.992,0.542c0.214,0.547,0.437,1.01,0.573,1.498
				c0.184,0.665-0.157,1.231-0.454,1.792c-0.29,0.011-0.58,0.022-0.871,0.033c-0.107-0.074-0.213-0.148-0.32-0.222
				c-0.148-0.002-0.296-0.005-0.445-0.006l0.012,0.006c0.121-0.428-0.036-0.575-0.459-0.456l0.01,0.01
				C279.793,683.365,279.463,682.129,278.815,680.974"/>
			<path fill="#AB997B" d="M272.509,669.304l-0.073-0.001c-0.184,0.195-0.472,0.363-0.532,0.591
				c-0.395,1.498-0.858,2.994-1.07,4.521c-0.207,1.486-0.121,3.011-0.198,4.517c-0.041,0.806-0.112,1.61-0.177,2.356
				c-0.006,0.016-0.023,0.057-0.028,0.07c-0.122,0.289-0.272,0.568-0.44,0.833c-0.028,0.044-0.037,0.097-0.037,0.15
				c-0.139,0.082-0.256,0.15-0.371,0.218c0.157,0.005,0.314,0.011,0.471,0.016c0.016,0.015,0.029,0.032,0.049,0.042
				c0.125,0.066,0.247,0.047,0.344-0.029c0.065,0.003,0.131,0.004,0.196,0.006c0.279-0.074,0.559-0.149,0.838-0.224
				c0.12-0.124,0.239-0.247,0.358-0.37c0.033-0.197,0.065-0.394,0.097-0.591c0.037-0.297,0.074-0.594,0.111-0.891
				c-0.072-0.24-0.195-0.479-0.205-0.722c-0.03-0.706-0.014-1.414-0.017-2.12c-0.095-0.194-0.262-0.385-0.271-0.582
				c-0.032-0.657-0.006-1.317-0.002-1.975c-0.001-0.691-0.002-1.383-0.003-2.073c0.091-0.106,0.183-0.211,0.274-0.317
				c0.102-0.694,0.205-1.387,0.308-2.081c0.048-0.102,0.095-0.204,0.142-0.307c0.103-0.346,0.205-0.691,0.309-1.036L272.509,669.304
				z"/>
			<path fill="#E05350" d="M281.826,685.329c0.297-0.561,0.638-1.126,0.454-1.792c-0.136-0.487-0.36-0.95-0.573-1.498
				c0.274-0.15,0.548-0.299,0.992-0.541c-0.28-0.24-0.499-0.457-0.747-0.633c-0.326-0.231-0.676-0.429-1.016-0.642
				c0.455,0.132,0.937,0.208,1.358,0.41c0.536,0.258,0.606,0.953,0.326,1.535c-0.134,0.279-0.181,0.674-0.098,0.968
				C282.797,684.112,282.555,684.98,281.826,685.329"/>
			<path fill="#DB394D" d="M275.134,703.126c-0.566,0.02-1.132,0.039-1.698,0.058c-0.089-0.375-0.179-0.75-0.268-1.125
				c0.703-0.013,1.406-0.026,2.109-0.038C275.229,702.39,275.182,702.758,275.134,703.126"/>
			<path fill="#DB394D" d="M259.121,700.804c-0.605,0.042-1.188,0.004-1.646-0.468c0.03-0.483,0.06-0.966,0.09-1.449
				c0.783,0.241,1.419,0.655,1.738,1.451C259.243,700.493,259.182,700.649,259.121,700.804"/>
			<path fill="#DBD4C9" d="M279.537,671.889c-0.078-0.464-0.155-0.929-0.233-1.393C279.858,670.88,279.522,671.414,279.537,671.889"
				/>
			<path fill="#E05350" d="M280.926,680.216c-0.304-0.018-0.609-0.037-0.914-0.056c0.074-0.081,0.148-0.163,0.221-0.241
				C280.464,680.02,280.695,680.118,280.926,680.216"/>
			<path fill="#DBD4C9" d="M279.265,668.887c-0.07-0.269-0.14-0.537-0.209-0.806C279.126,668.35,279.196,668.619,279.265,668.887"/>
			<path fill="#DBD4C9" d="M279.732,673.652c-0.057-0.156-0.113-0.312-0.17-0.468C279.619,673.341,279.675,673.496,279.732,673.652"
				/>
			<path fill="#C0AC8C" d="M271.839,681.999c0.033-0.197,0.065-0.394,0.097-0.591C271.903,681.605,271.871,681.802,271.839,681.999"
				/>
			<path fill="#E05350" d="M280.636,685.14c0.106,0.074,0.213,0.148,0.32,0.221C280.849,685.288,280.742,685.214,280.636,685.14"/>
			<path fill="#FFFBF0" d="M278.815,680.974c0.648,1.155,0.977,2.391,0.938,3.72c-0.692-0.45-1.384-0.899-2.075-1.349
				c0.622-0.399,0.691-0.942,0.445-1.594c-0.093-0.246-0.104-0.524-0.152-0.787C278.253,680.967,278.534,680.97,278.815,680.974"/>
			<path fill="#C0AC8C" d="M271.825,677.674c-0.095-0.194-0.262-0.384-0.271-0.582c-0.031-0.657-0.006-1.316-0.002-1.975
				c0.095,0.194,0.261,0.384,0.27,0.583C271.853,676.357,271.828,677.016,271.825,677.674"/>
			<path fill="#BFAA89" d="M272.582,669.302l-0.073,0.002l-0.072-0.001c0.056-0.082,0.112-0.164,0.167-0.246
				C272.596,669.138,272.59,669.22,272.582,669.302"/>
			<path fill="#C0AC8C" d="M272.131,670.645c0.048-0.102,0.095-0.204,0.142-0.307C272.226,670.44,272.178,670.543,272.131,670.645"
				/>
			<path fill="#C0AC8C" d="M271.549,673.044c0.091-0.106,0.183-0.211,0.274-0.317C271.732,672.832,271.64,672.938,271.549,673.044"
				/>
			<path fill="#E05350" d="M279.755,680.22c-0.102,0.093-0.204,0.185-0.306,0.277C279.551,680.405,279.653,680.313,279.755,680.22"
				/>
			<path fill="#FEFEFE" d="M279.744,684.683c0.423-0.119,0.58,0.029,0.458,0.457C280.049,684.988,279.897,684.836,279.744,684.683"
				/>
			<path fill="#FFFBF0" d="M280.378,671.966c-0.007-0.155-0.127-0.301-0.289-0.307c-0.003-0.008-0.005-0.016-0.007-0.024
				c-0.032-0.122-0.054-0.248-0.071-0.373c-0.002-0.018-0.005-0.043-0.006-0.05c-0.004-0.032-0.008-0.064-0.011-0.096
				c-0.007-0.065-0.013-0.129-0.02-0.194c-0.014-0.139-0.029-0.278-0.043-0.416c-0.011-0.104-0.066-0.202-0.15-0.26
				c-0.052-0.688-0.082-1.377-0.08-2.068c0.002-0.4-0.621-0.401-0.622,0c-0.006,1.677,0.149,3.349,0.457,4.998
				c0.073,0.393,0.673,0.226,0.6-0.165c-0.045-0.245-0.081-0.49-0.119-0.735c0.017,0.001,0.034,0.004,0.051,0.003
				C280.229,672.269,280.386,672.139,280.378,671.966"/>
			<path fill="#DB394D" d="M282.648,681.818c0.121-0.337,0.039-0.693-0.188-0.964c-0.236-0.283-0.597-0.408-0.936-0.515
				c-0.02-0.006-0.036-0.003-0.055-0.006c-0.241-0.096-0.483-0.19-0.728-0.277c-0.071-0.025-0.141-0.049-0.212-0.073
				c-0.088-0.03-0.177-0.069-0.272-0.066c-0.201,0.005-0.347,0.194-0.484,0.32c-0.12,0.111-0.121,0.33,0,0.44
				c0.128,0.117,0.312,0.118,0.44,0c0.038-0.036,0.077-0.071,0.115-0.106c0.12,0.041,0.24,0.082,0.36,0.125
				c0.258,0.093,0.514,0.192,0.767,0.295c0.032,0.013,0.066,0.013,0.1,0.011c0.182,0.062,0.365,0.144,0.47,0.303
				c0.126,0.19,0.022,0.406-0.128,0.546c-0.115,0.106-0.215,0.217-0.25,0.376c-0.036,0.163-0.001,0.33,0.045,0.487
				c0.091,0.31,0.155,0.62,0.177,0.943c0.005,0.068,0.032,0.129,0.07,0.181c-0.003,0.066,0.001,0.132-0.008,0.199
				c-0.014,0.109-0.05,0.274-0.091,0.399c-0.04,0.12-0.079,0.18-0.172,0.265c-0.011,0.01-0.014,0.014-0.016,0.016
				c-0.003,0.001-0.009,0.004-0.022,0.012c-0.027,0.016-0.055,0.032-0.082,0.048c-0.012,0.008-0.017,0.011-0.019,0.012
				c-0.003,0.001-0.009,0.003-0.023,0.007c-0.03,0.011-0.06,0.021-0.091,0.029c-0.125,0.034-0.262,0.037-0.404,0.019
				c-0.1-0.014-0.246-0.05-0.357-0.093c-0.02-0.008-0.021-0.008-0.002,0c-0.016-0.006-0.03-0.013-0.045-0.021
				c-0.029-0.015-0.058-0.031-0.086-0.048c-0.014-0.009-0.027-0.018-0.041-0.027c0.016,0.012,0.016,0.012-0.001-0.002
				c-0.028-0.025-0.054-0.052-0.079-0.081c-0.052-0.061-0.129-0.087-0.208-0.088c-0.039-0.018-0.083-0.029-0.135-0.029
				c-0.388,0-0.397,0.582-0.031,0.616c0.25,0.242,0.608,0.35,0.946,0.392c0.387,0.047,0.779-0.035,1.087-0.281
				c0.301-0.24,0.419-0.618,0.473-0.986c0.06-0.403,0.047-0.801-0.043-1.199c-0.017-0.076-0.069-0.136-0.134-0.175
				c-0.023-0.099-0.042-0.198-0.071-0.297c-0.009-0.032-0.021-0.066-0.026-0.1c-0.002-0.014-0.001-0.074-0.007-0.058
				c0.002-0.005,0.095-0.082,0.119-0.107C282.495,682.136,282.588,681.984,282.648,681.818"/>
			<path fill="#FEFEFE" d="M283.103,682.507C283.103,682.507,283.103,682.507,283.103,682.507
				C283.103,682.507,283.103,682.507,283.103,682.507z"/>
			<path fill="#FFFBF0" d="M283.56,683.406c-0.033-0.036-0.066-0.074-0.098-0.112c-0.019-0.022-0.037-0.046-0.056-0.069
				c-0.002-0.003-0.004-0.004-0.006-0.007c-0.001-0.028-0.003-0.057-0.013-0.084c0.053-0.094,0.068-0.209,0.004-0.304
				c-0.066-0.097-0.144-0.175-0.226-0.257c-0.016-0.015-0.03-0.03-0.044-0.046c-0.002-0.001-0.006-0.007-0.01-0.012
				c-0.005-0.007-0.009-0.014-0.013-0.022v-0.025c0.002-0.007,0.003-0.014,0.005-0.021c0.002-0.01,0.005-0.019,0.009-0.028
				c0.001-0.001,0.001-0.002,0.002-0.004c0.008-0.014,0.023-0.023,0.028-0.041c0.002-0.004,0-0.01,0.001-0.014
				c0.014-0.024,0.028-0.048,0.044-0.072c0.002-0.003,0.003-0.006,0.005-0.009c0.086-0.077,0.157-0.169,0.175-0.287
				c0.004-0.026,0.003-0.052,0.001-0.079c0.056-0.077,0.113-0.153,0.169-0.23c0.045-0.061,0.051-0.17,0.032-0.239
				c-0.02-0.073-0.075-0.151-0.143-0.186c-0.001-0.001-0.002-0.001-0.003-0.001c-0.014-0.033-0.034-0.063-0.062-0.088
				c-0.123-0.113-0.318-0.124-0.439,0c-0.102,0.102-0.121,0.219-0.139,0.354c0.004-0.028,0.008-0.056,0.011-0.083
				c-0.016,0.107-0.05,0.209-0.09,0.308c-0.012,0.026-0.026,0.051-0.039,0.076l-0.133,0.18c-0.178,0.162-0.262,0.379-0.176,0.628
				c0.021,0.062,0.051,0.12,0.078,0.181c0.052,0.156,0.132,0.302,0.228,0.436c0.136,0.214,0.294,0.416,0.459,0.598
				c0.11,0.121,0.33,0.12,0.44,0C283.679,683.717,283.677,683.535,283.56,683.406"/>
			<path fill="#FFFBF0" d="M283.844,685.479c-0.789-0.11-1.607,0.043-2.386-0.127c-0.578-0.126-0.989-0.485-1.282-0.955
				c-0.169-0.499-0.38-0.984-0.643-1.441c-0.081-0.141-0.285-0.202-0.426-0.112c-0.142,0.092-0.198,0.274-0.111,0.426
				c0.134,0.233,0.257,0.473,0.365,0.719c0.002,0.004,0.004,0.008,0.005,0.012c-0.281-0.22-0.566-0.446-0.768-0.742
				c-0.225-0.329-0.764-0.018-0.537,0.313c0.399,0.582,1.011,0.914,1.499,1.405c0.21,0.211,0.39,0.454,0.456,0.75
				c0.018,0.083,0.084,0.784-0.034,0.787c-0.4,0.01-0.401,0.631,0,0.622c0.512-0.012,0.676-0.495,0.682-0.929
				c0.002-0.177-0.012-0.347-0.039-0.514c0.148,0.084,0.305,0.156,0.474,0.208c0.84,0.254,1.723,0.057,2.578,0.177
				c0.167,0.023,0.332-0.041,0.383-0.217C284.102,685.717,284.01,685.503,283.844,685.479"/>
			<path fill="#DB394D" d="M280.191,685.134l0.011,0.006c-0.153-0.152-0.306-0.304-0.458-0.456l0.01,0.01
				c-0.692-0.45-1.384-0.899-2.075-1.349c-0.163-0.097-0.375-0.315-0.48-0.272c-0.512,0.211-1.003,0.479-1.482,0.76
				c-0.091,0.053-0.094,0.256-0.138,0.39c0.639,0.221,0.4,0.766,0.434,1.202c0.104,1.323,0.232,2.612,1.486,3.464
				c0.471,0.319,0.901,0.38,1.331,0.092c0.284-0.19,0.418-0.438,0.455-0.715c0.052-0.133,0.09-0.272,0.096-0.413
				c0.01-0.215-0.03-0.439-0.085-0.646c-0.043-0.165-0.116-0.314-0.204-0.455c0.072,0.01,0.147,0.011,0.221,0.005
				c0.131-0.011,0.255-0.031,0.376-0.081c0.167-0.071,0.288-0.192,0.361-0.343c0.156-0.171,0.151-0.46,0.138-1.047
				C280.188,685.234,280.19,685.184,280.191,685.134"/>
			<path fill="#FFFBF0" d="M280.337,684.978c-0.223-0.314-0.501-0.577-0.781-0.839c-0.329-0.307-0.657-0.614-0.986-0.92
				c-0.292-0.273-0.733,0.166-0.44,0.44c0.517,0.483,1.081,0.944,1.546,1.479c0.308,0.356,0.624,0.991,0.259,1.422
				c-0.108,0.128-0.126,0.314,0,0.44c0.111,0.111,0.331,0.129,0.44,0C280.876,686.408,280.763,685.578,280.337,684.978"/>
			<path fill="#AB997B" d="M271.295,672.639c-0.009,1.614-0.016,3.228-0.025,4.843c-0.002,0.401,0.62,0.401,0.622,0l0.025-4.843
				C271.92,672.239,271.297,672.238,271.295,672.639"/>
			<path fill="#D8C09B" d="M273.965,684.139c-0.003,0.002-0.004,0.007-0.02-0.001c-0.058-0.031-0.089-0.087-0.119-0.142
				c-0.074-0.138-0.123-0.292-0.18-0.438c-0.146-0.375-0.291-0.75-0.426-1.128c-0.265-0.743-0.49-1.501-0.622-2.28
				c-0.003-0.014-0.01-0.022-0.014-0.035c0.123-0.057,0.214-0.179,0.168-0.348c-0.454-1.685-0.42-3.435-0.346-5.164
				c0.077-1.807,0.238-3.611,0.646-5.377c0.09-0.39-0.509-0.556-0.6-0.165c-0.421,1.819-0.589,3.681-0.668,5.542
				c-0.076,1.784-0.101,3.591,0.368,5.33c0.005,0.017,0.014,0.026,0.02,0.041c-0.115,0.062-0.202,0.181-0.174,0.343
				c0.172,1.011,0.501,1.981,0.866,2.936c0.088,0.23,0.177,0.459,0.268,0.688c0.081,0.204,0.156,0.416,0.308,0.581
				c0.289,0.316,0.808,0.324,1.048-0.051C274.697,684.138,274.188,683.836,273.965,684.139"/>
			<path fill="#67522F" d="M270.333,682.502c-0.319-0.004-0.638,0.013-0.954,0.052c-0.167,0.02-0.311,0.128-0.311,0.311
				c0,0.152,0.143,0.332,0.311,0.311c0.141-0.017,0.281-0.014,0.423-0.023c-0.026,0.036-0.052,0.071-0.075,0.105
				c-0.127,0.188-0.256,0.375-0.385,0.561c-0.268,0.386-0.539,0.768-0.815,1.148c-0.099,0.136-0.024,0.347,0.111,0.425
				c0.157,0.092,0.327,0.025,0.426-0.111c0.284-0.393,0.564-0.788,0.84-1.186c0.139-0.199,0.276-0.399,0.411-0.599
				c0.126-0.186,0.276-0.375,0.319-0.601C270.67,682.697,270.548,682.504,270.333,682.502"/>
			<path fill="#4F3E24" d="M271.553,682.585c-0.065-0.147-0.212-0.213-0.368-0.18c-0.196,0.042-0.392,0.083-0.588,0.125
				c-0.158,0.033-0.25,0.214-0.218,0.366c-0.002,0.003-0.006,0.005-0.008,0.009c-0.162,0.261-0.3,0.538-0.417,0.821
				c-0.233,0.561-0.361,1.158-0.392,1.765c-0.008,0.168,0.15,0.311,0.311,0.311c0.175,0,0.302-0.142,0.311-0.311
				c0.026-0.517,0.14-1.025,0.332-1.507c0.09-0.23,0.208-0.447,0.331-0.661c0.069-0.119,0.078-0.13,0.198-0.183
				c0.126-0.056,0.253-0.111,0.379-0.166C271.566,682.911,271.609,682.712,271.553,682.585"/>
		</g>
	</g>
	<g>
		<g>
			<path fill="#FEFEFE" d="M253.364,676.355c-1.751,0.477-3.071,1.448-3.883,3.096c-0.09,0.182-0.363,0.385-0.548,0.383
				c-0.234-0.002-0.475-0.191-0.695-0.328c-0.097-0.061-0.15-0.193-0.26-0.342c-0.982,1.02-2.227,0.842-3.37,0.583
				c-1.458-0.33-1.082-1.845-1.641-3.012c-0.785,0.112-1.66,0.206-2.517,0.386c-0.175,0.037-0.346,0.385-0.403,0.618
				c-0.075,0.307-0.035,0.642-0.044,0.965c0.106,0.687-0.521,0.857-0.866,1.225c0.017,0.59,0.033,1.179,0.05,1.768
				c0.07,0.269,0.14,0.537,0.209,0.806c0.012,0.536,0.025,1.072,0.038,1.609c0.554,0.384,0.218,0.918,0.232,1.393
				c0.009,0.432,0.017,0.864,0.025,1.295l0.171,0.468c0.526,1.44,0.998,2.903,1.598,4.312c0.361,0.848,0.383,1.067-0.409,1.539
				c-0.231,0.137-0.459,0.279-0.689,0.418c0.231,0.098,0.463,0.196,0.693,0.295l0.011,0.007c0.455,0.132,0.937,0.208,1.358,0.41
				c0.536,0.258,0.606,0.953,0.326,1.535c-0.134,0.279-0.182,0.674-0.098,0.968c0.275,0.974,0.033,1.843-0.696,2.192
				c-0.29,0.011-0.58,0.022-0.87,0.033c-0.106-0.074-0.214-0.148-0.32-0.222c-0.148-0.002-0.297-0.004-0.445-0.006
				c-0.001,0.05-0.003,0.1-0.002,0.149c0.027,1.158,0.027,1.158-1.198,1.376c0.07,0.294,0.121,0.589,0.211,0.872
				c0.179,0.567,0.147,1.101-0.371,1.448c-0.43,0.288-0.86,0.227-1.331-0.092c-1.255-0.852-1.382-2.141-1.486-3.464
				c-0.034-0.436,0.205-0.981-0.434-1.202c-0.449,0.155-0.89,0.351-1.351,0.451c-0.391,0.085-0.649-0.047-0.789-0.532
				c-0.344-1.191-0.791-2.353-1.205-3.523c-0.018-0.05-0.123-0.068-0.188-0.101l-0.112,0.891c-0.032,0.197-0.064,0.394-0.096,0.591
				c-0.12,0.123-0.239,0.247-0.358,0.37c0.204,0.425,0.406,0.852,0.613,1.276c0.054,0.109,0.159,0.203,0.185,0.316
				c0.536,2.41,1.683,4.556,2.807,6.725c0.572,1.104,1.04,2.246,0.992,3.617c-0.046,1.349,0.432,2.708,0.574,4.073
				c0.089,0.854,0.019,1.731-0.051,2.593c-0.063,0.772-0.74,0.878-1.324,1.051c-0.048,0.368-0.095,0.737-0.143,1.105
				c0.478,0.148,0.948,0.338,1.436,0.433c1.106,0.217,2.167,0.502,3.001,1.365c-0.274,0.568-0.628,0.836-1.275,0.817
				c-1.515-0.048-3.033,0.005-4.549-0.032c-0.326-0.009-0.883-0.171-0.926-0.356c-0.108-0.472-0.043-1.011,0.067-1.498
				c0.057-0.253,0.357-0.449,0.547-0.672c-0.089-0.375-0.179-0.75-0.269-1.125c-0.559-0.006-1.128,0.049-1.676-0.035
				c-0.585-0.09-0.86-0.454-0.869-1.126c-0.026-2.154-0.132-4.308-0.215-6.461c-0.006-0.166-0.055-0.341-0.127-0.491
				c-0.633-1.32-1.277-2.635-1.917-3.951c-0.083-0.008-0.22-0.05-0.239-0.02c-0.54,0.898-1.075,1.8-1.597,2.709
				c-1.158,2.017-2.307,4.04-3.464,6.058c-0.389,0.678-0.781,1.355-1.194,2.019c-0.422,0.678-1.063,0.744-1.673,0.222
				c-0.278-0.238-0.594-0.431-0.894-0.645c-0.06,0.155-0.121,0.311-0.182,0.466c0.542,0.781,1.104,1.549,1.617,2.348
				c0.241,0.377,0.454,0.798,0.558,1.228c0.121,0.505-0.745,0.992-1.233,0.638c-1.123-0.815-2.25-1.646-3.245-2.607
				c-0.801-0.773-0.438-1.72,0.658-2.075c0.029-0.483,0.059-0.966,0.088-1.449c-0.576-0.318-1.156-0.631-1.729-0.955
				c-1.039-0.587-1.081-1.134-0.298-2.032c0.879-1.008,1.774-2.023,2.487-3.146c0.729-1.146,1.247-2.426,1.852-3.651
				c0.821-1.661,1.63-3.329,2.46-4.987c0.259-0.517,0.568-1.009,0.856-1.513c-0.502-1.866-0.008-3.718,0.194-5.551
				c0.119-1.08,0.673-2.135,1.144-3.15c0.764-1.644,1.506-3.317,2.47-4.844c0.965-1.528,1.713-3.222,3.108-4.469
				c0.888-0.792,1.617-1.781,2.561-2.488c1.039-0.778,2.198-1.437,3.391-1.944c0.603-0.256,1.426-0.385,2.084,0.152
				c0.541-0.04,1.089-0.036,1.62-0.13c0.846-0.149,1.712-0.282,2.508-0.583c0.392-0.148,0.738-0.611,0.946-1.013
				c0.539-1.04,1.195-1.885,2.315-2.39c0.857-0.386,1.558-1.182,2.433-1.447c1.706-0.516,3.418-0.742,4.948,0.732
				c1.403,1.352,2.271,2.867,2.206,4.824C255.209,675.177,254.641,676.007,253.364,676.355"/>
			<path fill="#D8C09B" d="M223.321,696.22c-0.501-1.866-0.008-3.718,0.194-5.551c0.119-1.08,0.673-2.136,1.144-3.15
				c0.764-1.644,1.506-3.317,2.47-4.844c0.965-1.529,1.713-3.223,3.109-4.469c0.888-0.793,1.616-1.781,2.561-2.488
				c1.038-0.777,2.198-1.437,3.391-1.944c0.603-0.256,1.426-0.385,2.083,0.151c-0.07,1.827,0.492,3.425,1.73,4.778
				c0.105,0.687-0.521,0.857-0.866,1.225c-1.571,0.948-2.293,2.566-2.763,4.152c-0.605,2.036-0.23,4.156,0.389,6.195
				c0.27,0.89,0.472,1.8,0.74,2.69c0.165,0.548,0.396,1.076,0.598,1.613c0.048,0.263,0.059,0.54,0.152,0.786
				c0.246,0.653,0.177,1.195-0.445,1.594c-0.163-0.097-0.375-0.316-0.479-0.272c-0.512,0.211-1.003,0.479-1.482,0.76
				c-0.091,0.053-0.094,0.256-0.138,0.389c-0.449,0.155-0.89,0.351-1.351,0.451c-0.391,0.085-0.649-0.047-0.789-0.532
				c-0.343-1.191-0.79-2.353-1.205-3.523c-0.018-0.05-0.123-0.068-0.188-0.101c-0.072-0.241-0.194-0.479-0.205-0.722
				c-0.03-0.706-0.014-1.414-0.017-2.121c0.003-0.658,0.028-1.318-0.003-1.974c-0.01-0.198-0.175-0.389-0.27-0.583
				c-0.001-0.691-0.002-1.382-0.003-2.073c0.091-0.105,0.183-0.211,0.274-0.317c0.102-0.694,0.205-1.388,0.308-2.081
				c0.048-0.103,0.095-0.205,0.142-0.308c0.103-0.346,0.205-0.691,0.309-1.036c0.007-0.081,0.014-0.163,0.021-0.245
				c-0.056,0.082-0.111,0.164-0.167,0.246c-0.183,0.195-0.472,0.363-0.532,0.591c-0.395,1.498-0.858,2.993-1.07,4.521
				c-0.207,1.486-0.121,3.011-0.199,4.516c-0.056,1.102-0.167,2.201-0.243,3.151c-0.377,0.222-0.593,0.349-0.81,0.476
				c-0.883,0.047-1.766,0.131-2.65,0.133C225.815,696.31,224.567,696.252,223.321,696.22"/>
			<path fill="#67522F" d="M223.321,696.22c1.247,0.032,2.494,0.09,3.74,0.088c0.884-0.002,1.767-0.086,2.65-0.133
				c0.354,0.012,0.707,0.023,1.06,0.035c-0.282,0.566-0.598,1.117-0.838,1.7c-0.339,0.828-0.629,1.676-0.927,2.519
				c-0.363,1.028-0.891,2.033-0.513,3.181c-0.082-0.008-0.22-0.05-0.239-0.02c-0.54,0.898-1.075,1.8-1.598,2.709
				c-1.158,2.017-2.307,4.04-3.464,6.058c-0.39,0.678-0.781,1.355-1.194,2.019c-0.422,0.678-1.063,0.743-1.673,0.222
				c-0.278-0.238-0.594-0.432-0.894-0.645c-0.318-0.796-0.956-1.21-1.738-1.451c-0.577-0.318-1.157-0.631-1.73-0.956
				c-1.038-0.587-1.081-1.134-0.298-2.032c0.879-1.008,1.775-2.023,2.488-3.146c0.728-1.146,1.247-2.426,1.852-3.651
				c0.821-1.661,1.63-3.329,2.46-4.987C222.725,697.215,223.034,696.724,223.321,696.22"/>
			<path fill="#DB394D" d="M240.002,678.704c-1.238-1.354-1.799-2.952-1.729-4.778c0.541-0.04,1.089-0.036,1.621-0.129
				c0.846-0.149,1.712-0.282,2.508-0.583c0.392-0.148,0.738-0.611,0.947-1.013c0.539-1.04,1.195-1.885,2.315-2.39
				c0.857-0.386,1.558-1.182,2.433-1.447c1.706-0.516,3.418-0.742,4.948,0.732c1.403,1.352,2.271,2.866,2.207,4.824
				c-0.041,1.258-0.609,2.088-1.887,2.436c-1.752,0.477-3.072,1.448-3.883,3.096c-0.09,0.182-0.363,0.385-0.548,0.383
				c-0.234-0.002-0.475-0.191-0.694-0.328c-0.097-0.061-0.15-0.193-0.261-0.343c-0.982,1.02-2.227,0.842-3.37,0.584
				c-1.457-0.33-1.081-1.845-1.641-3.012c-0.786,0.112-1.66,0.206-2.517,0.386c-0.175,0.037-0.347,0.385-0.403,0.618
				C239.971,678.046,240.011,678.381,240.002,678.704"/>
			<path fill="#4F3E24" d="M228.493,703.612c-0.378-1.149,0.15-2.154,0.513-3.182c0.298-0.844,0.589-1.692,0.927-2.519
				c0.24-0.583,0.556-1.135,0.838-1.7c0.279-0.075,0.559-0.15,0.838-0.225c0.204,0.425,0.406,0.852,0.614,1.276
				c0.054,0.11,0.159,0.203,0.184,0.316c0.536,2.41,1.683,4.555,2.807,6.725c0.572,1.104,1.04,2.246,0.992,3.617
				c-0.046,1.348,0.433,2.707,0.574,4.073c0.089,0.854,0.019,1.731-0.05,2.592c-0.063,0.772-0.74,0.878-1.324,1.052
				c-0.703,0.013-1.406,0.025-2.109,0.038c-0.559-0.006-1.128,0.049-1.676-0.035c-0.586-0.09-0.861-0.454-0.869-1.126
				c-0.026-2.154-0.132-4.308-0.216-6.461c-0.006-0.165-0.055-0.34-0.127-0.491C229.776,706.243,229.133,704.928,228.493,703.612"/>
			<path fill="#AA977B" d="M238.1,694.579c-0.202-0.537-0.433-1.065-0.598-1.613c-0.268-0.89-0.47-1.8-0.74-2.69
				c-0.619-2.04-0.994-4.159-0.389-6.196c0.47-1.585,1.192-3.203,2.763-4.151c0.017,0.59,0.033,1.179,0.049,1.768
				c0.07,0.269,0.139,0.538,0.209,0.806c0.012,0.536,0.026,1.072,0.038,1.609c0.078,0.464,0.155,0.928,0.233,1.393
				c0.008,0.432,0.017,0.864,0.026,1.295c0.056,0.156,0.113,0.312,0.17,0.468c0.525,1.44,0.998,2.903,1.598,4.312
				c0.361,0.847,0.384,1.067-0.408,1.539c-0.231,0.137-0.46,0.279-0.688,0.416c-0.073,0.079-0.148,0.16-0.222,0.241
				c-0.086,0.02-0.172,0.04-0.257,0.059c-0.102,0.093-0.204,0.185-0.305,0.277c-0.212,0.159-0.423,0.318-0.635,0.477
				C238.663,694.586,238.381,694.583,238.1,694.579"/>
			<path fill="#5F5B54" d="M235.263,716.742c0.478,0.147,0.948,0.338,1.436,0.433c1.106,0.217,2.167,0.502,3.001,1.365
				c-0.274,0.568-0.628,0.836-1.275,0.816c-1.515-0.048-3.033,0.005-4.549-0.032c-0.326-0.008-0.883-0.171-0.926-0.355
				c-0.108-0.473-0.043-1.012,0.067-1.498c0.057-0.253,0.357-0.45,0.547-0.672C234.131,716.781,234.696,716.762,235.263,716.742"/>
			<path fill="#5E5953" d="M219.25,714.42c0.542,0.781,1.104,1.549,1.616,2.348c0.242,0.377,0.455,0.798,0.558,1.228
				c0.122,0.505-0.744,0.992-1.232,0.638c-1.123-0.815-2.25-1.646-3.246-2.607c-0.801-0.773-0.438-1.72,0.657-2.075
				C218.062,714.424,218.645,714.462,219.25,714.42"/>
			<path fill="#DB394D" d="M238.944,694.59c0.212-0.159,0.423-0.318,0.635-0.477c0.102-0.092,0.203-0.185,0.305-0.277
				c0.085-0.02,0.171-0.04,0.257-0.059c0.305,0.019,0.609,0.037,0.914,0.055l0.011,0.007c0.34,0.212,0.689,0.41,1.016,0.642
				c0.248,0.175,0.467,0.393,0.747,0.633c-0.444,0.242-0.717,0.392-0.992,0.541c0.214,0.547,0.437,1.01,0.573,1.498
				c0.184,0.665-0.157,1.231-0.454,1.792c-0.29,0.011-0.58,0.022-0.871,0.033c-0.106-0.074-0.213-0.148-0.32-0.221
				c-0.148-0.002-0.296-0.005-0.445-0.006l0.012,0.006c0.121-0.428-0.036-0.575-0.459-0.456l0.01,0.01
				C239.921,696.981,239.592,695.745,238.944,694.59"/>
			<path fill="#AB997B" d="M232.638,682.92l-0.073-0.001c-0.184,0.195-0.472,0.363-0.532,0.591c-0.395,1.498-0.858,2.994-1.07,4.521
				c-0.207,1.486-0.121,3.011-0.199,4.517c-0.041,0.806-0.112,1.61-0.177,2.356c-0.006,0.016-0.023,0.057-0.028,0.07
				c-0.122,0.289-0.272,0.568-0.44,0.833c-0.028,0.044-0.037,0.097-0.037,0.15c-0.139,0.082-0.256,0.15-0.371,0.218
				c0.157,0.005,0.314,0.011,0.471,0.016c0.016,0.015,0.029,0.032,0.049,0.042c0.125,0.066,0.247,0.047,0.344-0.029
				c0.065,0.003,0.131,0.004,0.196,0.006c0.279-0.074,0.559-0.149,0.838-0.224c0.12-0.124,0.239-0.247,0.358-0.37
				c0.033-0.197,0.065-0.394,0.097-0.591c0.037-0.297,0.074-0.594,0.111-0.891c-0.072-0.24-0.195-0.479-0.205-0.722
				c-0.03-0.706-0.014-1.414-0.017-2.12c-0.095-0.194-0.262-0.385-0.271-0.582c-0.032-0.657-0.006-1.317-0.002-1.975
				c-0.001-0.691-0.002-1.383-0.003-2.073c0.091-0.106,0.183-0.211,0.274-0.317c0.102-0.694,0.205-1.387,0.308-2.081
				c0.048-0.102,0.095-0.204,0.142-0.307c0.103-0.346,0.205-0.691,0.309-1.036L232.638,682.92z"/>
			<path fill="#E05350" d="M241.955,698.945c0.297-0.561,0.638-1.126,0.454-1.792c-0.136-0.487-0.36-0.95-0.573-1.498
				c0.274-0.15,0.548-0.299,0.992-0.541c-0.28-0.24-0.499-0.457-0.747-0.633c-0.326-0.231-0.676-0.429-1.016-0.642
				c0.455,0.132,0.937,0.208,1.358,0.41c0.536,0.258,0.606,0.953,0.326,1.535c-0.134,0.279-0.181,0.674-0.098,0.968
				C242.926,697.728,242.684,698.596,241.955,698.945"/>
			<path fill="#DB394D" d="M235.263,716.742c-0.566,0.02-1.132,0.039-1.698,0.058c-0.089-0.375-0.179-0.75-0.268-1.125
				c0.703-0.013,1.406-0.026,2.109-0.038C235.358,716.006,235.31,716.374,235.263,716.742"/>
			<path fill="#DB394D" d="M219.25,714.42c-0.605,0.042-1.188,0.004-1.646-0.468c0.03-0.483,0.06-0.966,0.09-1.449
				c0.783,0.241,1.419,0.655,1.738,1.451C219.371,714.109,219.31,714.265,219.25,714.42"/>
			<path fill="#DBD4C9" d="M239.665,685.505c-0.078-0.464-0.155-0.929-0.233-1.393C239.987,684.497,239.651,685.031,239.665,685.505
				"/>
			<path fill="#E05350" d="M241.054,693.832c-0.304-0.018-0.609-0.037-0.914-0.056c0.074-0.081,0.148-0.163,0.222-0.241
				C240.592,693.636,240.823,693.734,241.054,693.832"/>
			<path fill="#DBD4C9" d="M239.394,682.503c-0.07-0.269-0.14-0.537-0.209-0.806C239.254,681.966,239.324,682.235,239.394,682.503"
				/>
			<path fill="#DBD4C9" d="M239.861,687.269c-0.057-0.156-0.113-0.312-0.17-0.468C239.747,686.957,239.804,687.112,239.861,687.269"
				/>
			<path fill="#C0AC8C" d="M231.967,695.615c0.033-0.197,0.065-0.394,0.097-0.591C232.031,695.221,232,695.419,231.967,695.615"/>
			<path fill="#E05350" d="M240.764,698.756c0.106,0.074,0.213,0.148,0.32,0.221C240.977,698.904,240.871,698.83,240.764,698.756"/>
			<path fill="#FFFBF0" d="M238.944,694.59c0.648,1.155,0.977,2.391,0.938,3.72c-0.692-0.45-1.384-0.899-2.075-1.349
				c0.622-0.399,0.691-0.942,0.445-1.594c-0.093-0.246-0.104-0.524-0.152-0.787C238.381,694.583,238.663,694.587,238.944,694.59"/>
			<path fill="#C0AC8C" d="M231.953,691.29c-0.095-0.194-0.262-0.384-0.271-0.582c-0.031-0.657-0.006-1.316-0.002-1.975
				c0.095,0.194,0.261,0.384,0.27,0.583C231.981,689.973,231.956,690.632,231.953,691.29"/>
			<path fill="#BFAA89" d="M232.711,682.918l-0.073,0.002l-0.072-0.001c0.056-0.082,0.112-0.164,0.167-0.246
				C232.725,682.755,232.718,682.836,232.711,682.918"/>
			<path fill="#C0AC8C" d="M232.259,684.261c0.048-0.102,0.095-0.204,0.142-0.307C232.354,684.056,232.307,684.159,232.259,684.261"
				/>
			<path fill="#C0AC8C" d="M231.677,686.66c0.091-0.106,0.183-0.211,0.274-0.317C231.86,686.448,231.769,686.554,231.677,686.66"/>
			<path fill="#E05350" d="M239.883,693.836c-0.102,0.093-0.204,0.185-0.306,0.277C239.68,694.021,239.782,693.929,239.883,693.836"
				/>
			<path fill="#FEFEFE" d="M239.873,698.3c0.423-0.119,0.58,0.029,0.458,0.457C240.178,698.604,240.025,698.452,239.873,698.3"/>
			<path fill="#FFFBF0" d="M240.506,685.582c-0.007-0.155-0.127-0.301-0.289-0.307c-0.003-0.008-0.005-0.016-0.007-0.024
				c-0.032-0.123-0.054-0.248-0.071-0.373c-0.002-0.018-0.005-0.043-0.006-0.05c-0.004-0.032-0.008-0.064-0.011-0.096
				c-0.007-0.065-0.013-0.13-0.02-0.194c-0.014-0.139-0.029-0.278-0.043-0.416c-0.011-0.104-0.066-0.202-0.15-0.26
				c-0.052-0.688-0.082-1.377-0.08-2.068c0.002-0.4-0.621-0.401-0.622,0c-0.006,1.677,0.149,3.349,0.457,4.998
				c0.073,0.393,0.673,0.226,0.6-0.165c-0.045-0.245-0.081-0.49-0.119-0.735c0.017,0.001,0.034,0.004,0.051,0.003
				C240.358,685.886,240.514,685.756,240.506,685.582"/>
			<path fill="#DB394D" d="M242.776,695.434c0.121-0.337,0.038-0.693-0.188-0.964c-0.236-0.283-0.597-0.408-0.936-0.515
				c-0.02-0.006-0.036-0.003-0.055-0.006c-0.241-0.096-0.483-0.19-0.728-0.277c-0.071-0.025-0.141-0.049-0.212-0.073
				c-0.088-0.03-0.177-0.069-0.272-0.066c-0.201,0.005-0.347,0.194-0.484,0.32c-0.12,0.111-0.121,0.33,0,0.44
				c0.128,0.117,0.312,0.118,0.44,0c0.038-0.036,0.077-0.071,0.115-0.107c0.12,0.041,0.24,0.082,0.36,0.125
				c0.258,0.093,0.514,0.192,0.767,0.295c0.032,0.013,0.066,0.013,0.1,0.011c0.182,0.062,0.365,0.144,0.47,0.303
				c0.126,0.19,0.022,0.406-0.128,0.546c-0.115,0.106-0.215,0.217-0.25,0.376c-0.036,0.163-0.001,0.33,0.045,0.487
				c0.091,0.31,0.155,0.62,0.177,0.943c0.005,0.068,0.032,0.13,0.07,0.181c-0.003,0.066,0.001,0.132-0.008,0.198
				c-0.014,0.109-0.05,0.274-0.091,0.399c-0.04,0.12-0.079,0.18-0.172,0.265c-0.011,0.01-0.014,0.014-0.016,0.016
				c-0.003,0.001-0.009,0.004-0.022,0.012c-0.027,0.016-0.055,0.032-0.082,0.048c-0.012,0.007-0.017,0.011-0.019,0.012
				c-0.003,0.001-0.009,0.003-0.023,0.008c-0.03,0.011-0.06,0.021-0.092,0.029c-0.125,0.034-0.262,0.037-0.404,0.019
				c-0.1-0.014-0.246-0.05-0.357-0.093c-0.02-0.008-0.021-0.008-0.002,0c-0.016-0.006-0.03-0.013-0.045-0.021
				c-0.029-0.015-0.058-0.031-0.086-0.048c-0.014-0.009-0.027-0.018-0.041-0.027c0.016,0.012,0.016,0.012-0.001-0.002
				c-0.028-0.025-0.054-0.052-0.079-0.081c-0.052-0.061-0.129-0.087-0.208-0.088c-0.039-0.018-0.083-0.029-0.135-0.029
				c-0.388,0-0.397,0.582-0.03,0.616c0.25,0.242,0.608,0.35,0.946,0.392c0.387,0.047,0.779-0.035,1.087-0.281
				c0.301-0.24,0.419-0.618,0.473-0.986c0.06-0.403,0.047-0.802-0.043-1.199c-0.017-0.077-0.069-0.136-0.134-0.175
				c-0.023-0.099-0.042-0.199-0.071-0.297c-0.009-0.032-0.021-0.066-0.026-0.099c-0.002-0.014-0.001-0.074-0.007-0.058
				c0.002-0.005,0.095-0.082,0.119-0.106C242.624,695.752,242.717,695.6,242.776,695.434"/>
			<path fill="#FEFEFE" d="M243.231,696.123C243.232,696.123,243.232,696.123,243.231,696.123
				C243.232,696.123,243.232,696.123,243.231,696.123z"/>
			<path fill="#FFFBF0" d="M243.688,697.023c-0.033-0.036-0.066-0.074-0.098-0.112c-0.019-0.022-0.037-0.046-0.056-0.069
				c-0.002-0.003-0.004-0.004-0.006-0.007c-0.001-0.028-0.003-0.057-0.013-0.084c0.053-0.094,0.068-0.209,0.004-0.304
				c-0.066-0.097-0.144-0.175-0.226-0.257c-0.016-0.015-0.03-0.03-0.044-0.046c-0.002-0.001-0.006-0.007-0.01-0.012
				c-0.005-0.007-0.009-0.014-0.013-0.022v-0.025c0.002-0.007,0.003-0.014,0.005-0.021c0.002-0.01,0.005-0.019,0.009-0.028
				c0.001-0.001,0.001-0.002,0.002-0.004c0.008-0.014,0.023-0.023,0.028-0.041c0.002-0.004,0-0.01,0.001-0.014
				c0.014-0.024,0.028-0.048,0.044-0.072c0.002-0.003,0.003-0.006,0.005-0.009c0.086-0.077,0.157-0.169,0.175-0.287
				c0.004-0.026,0.003-0.052,0.001-0.079c0.056-0.076,0.113-0.153,0.169-0.23c0.045-0.061,0.051-0.17,0.032-0.239
				c-0.02-0.073-0.075-0.151-0.143-0.186c-0.001-0.001-0.002-0.001-0.003-0.001c-0.014-0.033-0.034-0.063-0.062-0.088
				c-0.123-0.113-0.318-0.124-0.439,0c-0.102,0.102-0.121,0.219-0.139,0.354c0.004-0.028,0.007-0.056,0.011-0.083
				c-0.016,0.106-0.05,0.209-0.09,0.308c-0.012,0.026-0.026,0.051-0.039,0.077l-0.133,0.18c-0.178,0.162-0.262,0.379-0.176,0.628
				c0.021,0.062,0.051,0.12,0.078,0.181c0.052,0.156,0.132,0.302,0.228,0.435c0.136,0.214,0.294,0.416,0.459,0.598
				c0.11,0.121,0.33,0.12,0.44,0C243.807,697.333,243.806,697.152,243.688,697.023"/>
			<path fill="#FFFBF0" d="M243.972,699.096c-0.789-0.11-1.607,0.043-2.386-0.127c-0.578-0.126-0.989-0.485-1.282-0.955
				c-0.169-0.499-0.38-0.984-0.643-1.441c-0.081-0.141-0.285-0.202-0.426-0.112c-0.142,0.092-0.198,0.274-0.111,0.426
				c0.134,0.233,0.257,0.473,0.365,0.719c0.002,0.004,0.004,0.008,0.005,0.012c-0.281-0.22-0.566-0.446-0.768-0.742
				c-0.225-0.328-0.764-0.018-0.537,0.314c0.399,0.582,1.011,0.914,1.499,1.405c0.21,0.211,0.39,0.454,0.456,0.75
				c0.018,0.083,0.084,0.784-0.034,0.787c-0.4,0.01-0.401,0.631,0,0.622c0.511-0.012,0.676-0.495,0.682-0.929
				c0.002-0.177-0.012-0.347-0.039-0.514c0.148,0.084,0.305,0.156,0.474,0.208c0.84,0.254,1.723,0.057,2.578,0.177
				c0.167,0.024,0.332-0.041,0.383-0.217C244.23,699.333,244.138,699.119,243.972,699.096"/>
			<path fill="#DB394D" d="M240.319,698.75l0.011,0.006c-0.153-0.152-0.306-0.304-0.458-0.456l0.01,0.01
				c-0.692-0.45-1.384-0.899-2.075-1.349c-0.163-0.097-0.375-0.315-0.48-0.272c-0.512,0.211-1.003,0.479-1.482,0.76
				c-0.091,0.054-0.094,0.256-0.137,0.39c0.639,0.221,0.4,0.766,0.434,1.202c0.104,1.323,0.232,2.612,1.486,3.464
				c0.471,0.319,0.901,0.38,1.331,0.092c0.284-0.19,0.418-0.438,0.455-0.715c0.052-0.133,0.09-0.272,0.096-0.413
				c0.01-0.215-0.03-0.439-0.085-0.646c-0.043-0.165-0.116-0.314-0.204-0.455c0.072,0.01,0.147,0.011,0.221,0.005
				c0.131-0.011,0.255-0.03,0.376-0.081c0.167-0.071,0.288-0.192,0.361-0.344c0.156-0.171,0.151-0.46,0.137-1.047
				C240.317,698.85,240.319,698.8,240.319,698.75"/>
			<path fill="#FFFBF0" d="M240.466,698.594c-0.223-0.314-0.501-0.577-0.781-0.839c-0.329-0.307-0.657-0.614-0.986-0.92
				c-0.292-0.273-0.733,0.166-0.44,0.44c0.517,0.483,1.081,0.944,1.546,1.479c0.308,0.356,0.624,0.991,0.259,1.422
				c-0.108,0.128-0.126,0.314,0,0.44c0.111,0.111,0.331,0.129,0.44,0C241.005,700.024,240.892,699.195,240.466,698.594"/>
			<path fill="#AB997B" d="M231.424,686.255c-0.009,1.614-0.016,3.228-0.025,4.843c-0.002,0.401,0.62,0.401,0.622,0l0.025-4.843
				C232.048,685.855,231.426,685.854,231.424,686.255"/>
			<path fill="#D8C09B" d="M234.093,697.755c-0.003,0.002-0.004,0.007-0.02-0.001c-0.058-0.03-0.089-0.087-0.119-0.142
				c-0.074-0.138-0.123-0.292-0.18-0.438c-0.146-0.375-0.291-0.75-0.426-1.128c-0.265-0.743-0.49-1.501-0.622-2.28
				c-0.003-0.014-0.01-0.023-0.014-0.035c0.123-0.057,0.214-0.179,0.168-0.348c-0.454-1.685-0.42-3.435-0.346-5.164
				c0.077-1.807,0.238-3.611,0.646-5.377c0.09-0.389-0.509-0.556-0.6-0.165c-0.421,1.819-0.589,3.681-0.668,5.542
				c-0.077,1.784-0.101,3.591,0.368,5.33c0.005,0.017,0.014,0.026,0.02,0.041c-0.115,0.062-0.202,0.181-0.174,0.343
				c0.172,1.011,0.501,1.981,0.866,2.936c0.088,0.229,0.177,0.459,0.268,0.688c0.081,0.204,0.156,0.416,0.308,0.581
				c0.289,0.316,0.808,0.324,1.048-0.051C234.826,697.755,234.317,697.452,234.093,697.755"/>
			<path fill="#67522F" d="M230.462,696.118c-0.319-0.004-0.638,0.013-0.955,0.052c-0.167,0.02-0.311,0.128-0.311,0.311
				c0,0.152,0.143,0.332,0.311,0.311c0.141-0.017,0.281-0.014,0.423-0.023c-0.026,0.036-0.052,0.071-0.075,0.105
				c-0.127,0.188-0.256,0.375-0.385,0.561c-0.268,0.386-0.539,0.768-0.815,1.148c-0.099,0.136-0.024,0.347,0.111,0.425
				c0.157,0.092,0.327,0.025,0.426-0.111c0.284-0.393,0.564-0.788,0.84-1.186c0.139-0.199,0.276-0.399,0.411-0.599
				c0.126-0.186,0.276-0.375,0.319-0.601C230.799,696.313,230.676,696.12,230.462,696.118"/>
			<path fill="#4F3E24" d="M231.682,696.201c-0.065-0.147-0.212-0.213-0.368-0.18c-0.196,0.042-0.392,0.083-0.588,0.125
				c-0.158,0.033-0.25,0.214-0.218,0.366c-0.002,0.003-0.006,0.005-0.008,0.009c-0.162,0.261-0.3,0.538-0.417,0.821
				c-0.233,0.561-0.361,1.158-0.392,1.765c-0.008,0.168,0.15,0.311,0.311,0.311c0.175,0,0.302-0.142,0.311-0.311
				c0.026-0.517,0.14-1.025,0.332-1.507c0.09-0.23,0.208-0.447,0.331-0.661c0.069-0.119,0.078-0.131,0.199-0.183
				c0.126-0.056,0.253-0.111,0.379-0.166C231.694,696.528,231.737,696.328,231.682,696.201"/>
		</g>
	</g>
	<g>
		<g>
			<path fill="#FEFEFE" d="M226.649,651.715c-1.751,0.477-3.071,1.448-3.883,3.096c-0.09,0.182-0.363,0.385-0.548,0.383
				c-0.234-0.002-0.475-0.191-0.695-0.329c-0.097-0.061-0.15-0.193-0.26-0.342c-0.982,1.02-2.227,0.842-3.37,0.583
				c-1.458-0.33-1.082-1.845-1.641-3.012c-0.785,0.112-1.66,0.206-2.517,0.386c-0.175,0.037-0.346,0.385-0.403,0.618
				c-0.075,0.307-0.035,0.642-0.044,0.965c0.106,0.687-0.521,0.857-0.866,1.225c0.017,0.59,0.033,1.179,0.05,1.768
				c0.07,0.269,0.14,0.537,0.209,0.806c0.012,0.536,0.025,1.072,0.038,1.609c0.554,0.384,0.218,0.918,0.232,1.393
				c0.009,0.432,0.017,0.864,0.025,1.295l0.171,0.468c0.526,1.44,0.998,2.903,1.598,4.312c0.361,0.848,0.383,1.067-0.409,1.539
				c-0.231,0.137-0.459,0.279-0.689,0.418c0.231,0.098,0.463,0.196,0.693,0.295l0.011,0.007c0.455,0.132,0.937,0.208,1.358,0.41
				c0.536,0.258,0.606,0.953,0.326,1.535c-0.134,0.279-0.182,0.674-0.098,0.968c0.275,0.974,0.033,1.843-0.696,2.192
				c-0.29,0.011-0.58,0.022-0.87,0.033c-0.106-0.074-0.214-0.148-0.32-0.221c-0.148-0.002-0.297-0.004-0.445-0.006
				c-0.001,0.05-0.003,0.099-0.002,0.149c0.027,1.158,0.027,1.158-1.198,1.376c0.07,0.294,0.121,0.589,0.211,0.872
				c0.179,0.567,0.147,1.101-0.371,1.448c-0.43,0.288-0.86,0.227-1.331-0.092c-1.255-0.852-1.382-2.141-1.486-3.464
				c-0.034-0.436,0.205-0.981-0.434-1.202c-0.449,0.155-0.89,0.351-1.351,0.451c-0.391,0.085-0.649-0.047-0.789-0.532
				c-0.344-1.191-0.791-2.353-1.205-3.523c-0.018-0.05-0.123-0.068-0.188-0.101l-0.112,0.891c-0.032,0.197-0.064,0.394-0.096,0.591
				c-0.12,0.123-0.239,0.247-0.358,0.37c0.204,0.425,0.406,0.852,0.613,1.276c0.054,0.109,0.159,0.203,0.185,0.316
				c0.536,2.41,1.683,4.556,2.807,6.725c0.572,1.104,1.04,2.246,0.992,3.617c-0.046,1.349,0.432,2.708,0.574,4.073
				c0.089,0.854,0.019,1.731-0.051,2.593c-0.063,0.772-0.74,0.877-1.324,1.051c-0.048,0.368-0.095,0.737-0.143,1.105
				c0.478,0.148,0.948,0.338,1.436,0.433c1.106,0.217,2.167,0.502,3.001,1.365c-0.274,0.568-0.628,0.836-1.275,0.816
				c-1.515-0.048-3.033,0.005-4.549-0.032c-0.326-0.009-0.883-0.171-0.926-0.356c-0.108-0.472-0.043-1.011,0.067-1.498
				c0.057-0.253,0.357-0.449,0.547-0.672c-0.089-0.375-0.179-0.75-0.269-1.125c-0.559-0.006-1.128,0.049-1.676-0.035
				c-0.585-0.09-0.86-0.454-0.869-1.126c-0.026-2.154-0.132-4.308-0.215-6.461c-0.006-0.166-0.055-0.341-0.127-0.491
				c-0.633-1.32-1.277-2.635-1.917-3.951c-0.083-0.008-0.22-0.05-0.239-0.02c-0.54,0.898-1.075,1.8-1.597,2.709
				c-1.158,2.017-2.307,4.04-3.464,6.058c-0.389,0.678-0.781,1.355-1.194,2.019c-0.422,0.678-1.063,0.744-1.673,0.222
				c-0.278-0.238-0.594-0.431-0.894-0.645c-0.06,0.155-0.121,0.311-0.182,0.466c0.542,0.781,1.104,1.549,1.617,2.348
				c0.241,0.377,0.454,0.798,0.558,1.228c0.121,0.505-0.745,0.992-1.233,0.638c-1.123-0.815-2.25-1.646-3.245-2.607
				c-0.801-0.773-0.438-1.72,0.658-2.075c0.029-0.483,0.059-0.966,0.088-1.449c-0.576-0.318-1.156-0.631-1.729-0.955
				c-1.039-0.587-1.081-1.134-0.298-2.032c0.879-1.008,1.774-2.023,2.487-3.146c0.729-1.146,1.247-2.426,1.852-3.651
				c0.821-1.661,1.63-3.329,2.46-4.987c0.259-0.517,0.568-1.009,0.856-1.513c-0.502-1.866-0.008-3.718,0.194-5.551
				c0.119-1.08,0.673-2.135,1.144-3.15c0.764-1.644,1.506-3.317,2.47-4.844c0.965-1.528,1.713-3.222,3.108-4.469
				c0.888-0.792,1.617-1.781,2.561-2.488c1.039-0.778,2.198-1.437,3.391-1.944c0.603-0.256,1.426-0.385,2.084,0.152
				c0.541-0.04,1.089-0.036,1.62-0.13c0.846-0.149,1.712-0.282,2.508-0.583c0.392-0.148,0.738-0.61,0.946-1.013
				c0.539-1.04,1.195-1.885,2.315-2.39c0.857-0.386,1.558-1.182,2.433-1.447c1.706-0.516,3.418-0.742,4.948,0.732
				c1.403,1.352,2.271,2.867,2.206,4.824C228.494,650.538,227.926,651.368,226.649,651.715"/>
			<path fill="#D8C09B" d="M196.606,671.581c-0.501-1.866-0.008-3.718,0.194-5.551c0.119-1.08,0.673-2.136,1.144-3.15
				c0.764-1.644,1.506-3.317,2.47-4.844c0.965-1.529,1.713-3.223,3.109-4.469c0.888-0.793,1.616-1.781,2.561-2.488
				c1.038-0.777,2.198-1.437,3.391-1.944c0.603-0.256,1.426-0.385,2.083,0.151c-0.07,1.827,0.492,3.425,1.73,4.778
				c0.105,0.687-0.521,0.857-0.866,1.225c-1.571,0.948-2.293,2.566-2.763,4.152c-0.605,2.036-0.23,4.156,0.389,6.195
				c0.27,0.89,0.472,1.8,0.74,2.69c0.165,0.548,0.396,1.076,0.598,1.613c0.048,0.263,0.059,0.54,0.152,0.787
				c0.246,0.653,0.177,1.195-0.445,1.594c-0.163-0.097-0.375-0.316-0.479-0.272c-0.512,0.211-1.003,0.479-1.482,0.76
				c-0.091,0.054-0.094,0.256-0.138,0.39c-0.449,0.155-0.89,0.351-1.351,0.451c-0.391,0.085-0.649-0.047-0.789-0.532
				c-0.343-1.191-0.79-2.353-1.205-3.523c-0.018-0.05-0.123-0.068-0.188-0.101c-0.072-0.241-0.194-0.479-0.205-0.722
				c-0.03-0.706-0.014-1.414-0.017-2.121c0.003-0.658,0.028-1.318-0.003-1.974c-0.01-0.198-0.176-0.389-0.27-0.583
				c-0.001-0.691-0.002-1.382-0.003-2.073c0.091-0.105,0.183-0.211,0.274-0.317c0.102-0.694,0.205-1.388,0.308-2.081
				c0.048-0.103,0.095-0.205,0.142-0.308c0.103-0.346,0.205-0.691,0.309-1.036c0.007-0.081,0.014-0.163,0.021-0.245
				c-0.056,0.082-0.111,0.164-0.167,0.246c-0.183,0.195-0.472,0.363-0.532,0.591c-0.395,1.498-0.858,2.993-1.07,4.521
				c-0.207,1.486-0.121,3.011-0.199,4.516c-0.056,1.102-0.167,2.201-0.243,3.151c-0.377,0.222-0.593,0.349-0.81,0.476
				c-0.883,0.047-1.766,0.131-2.65,0.133C199.1,671.671,197.853,671.613,196.606,671.581"/>
			<path fill="#67522F" d="M196.606,671.581c1.247,0.032,2.494,0.09,3.74,0.088c0.884-0.002,1.767-0.086,2.65-0.133
				c0.354,0.012,0.707,0.023,1.06,0.035c-0.282,0.566-0.598,1.117-0.838,1.7c-0.339,0.828-0.629,1.676-0.927,2.52
				c-0.363,1.028-0.891,2.033-0.513,3.181c-0.082-0.008-0.22-0.05-0.239-0.02c-0.54,0.898-1.075,1.8-1.598,2.709
				c-1.158,2.017-2.307,4.04-3.464,6.058c-0.389,0.678-0.781,1.355-1.194,2.019c-0.422,0.678-1.063,0.743-1.673,0.222
				c-0.278-0.238-0.594-0.432-0.894-0.645c-0.318-0.796-0.956-1.21-1.738-1.451c-0.577-0.318-1.157-0.631-1.73-0.956
				c-1.038-0.587-1.081-1.134-0.298-2.032c0.879-1.008,1.775-2.023,2.488-3.146c0.728-1.146,1.247-2.426,1.852-3.651
				c0.821-1.661,1.63-3.329,2.46-4.987C196.01,672.576,196.319,672.084,196.606,671.581"/>
			<path fill="#DB394D" d="M213.287,654.064c-1.238-1.354-1.799-2.952-1.729-4.778c0.541-0.04,1.089-0.036,1.621-0.13
				c0.846-0.149,1.712-0.282,2.508-0.583c0.392-0.148,0.738-0.61,0.947-1.013c0.539-1.04,1.195-1.885,2.315-2.39
				c0.857-0.386,1.558-1.182,2.433-1.447c1.706-0.516,3.418-0.742,4.948,0.732c1.403,1.352,2.271,2.866,2.207,4.824
				c-0.041,1.258-0.609,2.088-1.887,2.436c-1.752,0.477-3.072,1.448-3.883,3.096c-0.09,0.182-0.363,0.385-0.548,0.383
				c-0.234-0.002-0.475-0.191-0.694-0.329c-0.097-0.061-0.15-0.193-0.261-0.343c-0.982,1.02-2.227,0.842-3.37,0.584
				c-1.457-0.33-1.081-1.845-1.641-3.012c-0.786,0.112-1.66,0.206-2.517,0.386c-0.175,0.037-0.347,0.385-0.403,0.618
				C213.256,653.406,213.296,653.741,213.287,654.064"/>
			<path fill="#4F3E24" d="M201.778,678.972c-0.378-1.149,0.15-2.154,0.513-3.182c0.298-0.844,0.589-1.692,0.927-2.519
				c0.24-0.583,0.556-1.135,0.838-1.7c0.279-0.075,0.559-0.15,0.838-0.225c0.204,0.425,0.406,0.852,0.614,1.276
				c0.054,0.11,0.159,0.203,0.184,0.316c0.536,2.41,1.683,4.555,2.807,6.725c0.572,1.104,1.04,2.246,0.992,3.617
				c-0.046,1.348,0.433,2.707,0.574,4.073c0.089,0.854,0.019,1.731-0.05,2.592c-0.063,0.772-0.74,0.877-1.324,1.052
				c-0.703,0.013-1.406,0.025-2.109,0.038c-0.559-0.006-1.128,0.049-1.676-0.035c-0.586-0.09-0.861-0.454-0.869-1.126
				c-0.026-2.154-0.132-4.308-0.216-6.461c-0.006-0.165-0.055-0.34-0.127-0.491C203.061,681.603,202.418,680.288,201.778,678.972"/>
			<path fill="#AA977B" d="M211.385,669.94c-0.202-0.537-0.433-1.065-0.598-1.613c-0.268-0.89-0.47-1.8-0.74-2.69
				c-0.619-2.04-0.994-4.159-0.389-6.196c0.47-1.585,1.192-3.203,2.763-4.151c0.017,0.59,0.033,1.179,0.049,1.768
				c0.07,0.269,0.139,0.538,0.209,0.806c0.012,0.536,0.026,1.072,0.038,1.609c0.078,0.464,0.155,0.928,0.233,1.393
				c0.008,0.432,0.017,0.864,0.026,1.295c0.056,0.156,0.113,0.312,0.17,0.468c0.525,1.44,0.998,2.903,1.598,4.312
				c0.361,0.848,0.384,1.067-0.408,1.539c-0.231,0.137-0.46,0.279-0.688,0.416c-0.073,0.079-0.148,0.16-0.222,0.241
				c-0.086,0.02-0.172,0.04-0.257,0.059c-0.102,0.093-0.204,0.185-0.305,0.277c-0.212,0.159-0.423,0.318-0.635,0.477
				C211.948,669.947,211.666,669.944,211.385,669.94"/>
			<path fill="#5F5B54" d="M208.548,692.102c0.478,0.147,0.948,0.338,1.436,0.433c1.106,0.217,2.167,0.502,3.001,1.365
				c-0.274,0.568-0.628,0.836-1.275,0.816c-1.515-0.048-3.033,0.005-4.549-0.032c-0.326-0.008-0.883-0.171-0.926-0.355
				c-0.108-0.473-0.043-1.012,0.067-1.498c0.057-0.253,0.357-0.45,0.547-0.672C207.416,692.142,207.982,692.122,208.548,692.102"/>
			<path fill="#5E5953" d="M192.535,689.781c0.542,0.781,1.104,1.549,1.616,2.348c0.242,0.377,0.455,0.798,0.558,1.228
				c0.122,0.505-0.744,0.992-1.232,0.638c-1.123-0.815-2.25-1.646-3.246-2.607c-0.801-0.773-0.438-1.72,0.657-2.075
				C191.347,689.785,191.93,689.823,192.535,689.781"/>
			<path fill="#DB394D" d="M212.229,669.95c0.212-0.159,0.423-0.318,0.635-0.477c0.102-0.092,0.203-0.185,0.305-0.277
				c0.085-0.02,0.171-0.04,0.257-0.059c0.305,0.019,0.609,0.037,0.914,0.055l0.011,0.008c0.34,0.212,0.689,0.41,1.016,0.642
				c0.248,0.175,0.467,0.393,0.747,0.633c-0.444,0.242-0.717,0.392-0.992,0.541c0.214,0.547,0.437,1.01,0.573,1.498
				c0.184,0.665-0.157,1.231-0.454,1.792c-0.29,0.011-0.58,0.022-0.871,0.033c-0.106-0.074-0.213-0.148-0.32-0.222
				c-0.148-0.002-0.296-0.005-0.445-0.006l0.012,0.006c0.121-0.428-0.036-0.575-0.459-0.456l0.01,0.01
				C213.206,672.341,212.877,671.105,212.229,669.95"/>
			<path fill="#AB997B" d="M205.923,658.281l-0.073-0.001c-0.184,0.195-0.472,0.363-0.532,0.591
				c-0.395,1.498-0.858,2.994-1.07,4.521c-0.207,1.486-0.121,3.011-0.199,4.517c-0.041,0.806-0.112,1.61-0.177,2.356
				c-0.006,0.016-0.023,0.057-0.028,0.07c-0.122,0.289-0.272,0.568-0.44,0.833c-0.028,0.044-0.037,0.097-0.037,0.15
				c-0.139,0.082-0.256,0.15-0.371,0.218c0.157,0.005,0.314,0.011,0.471,0.016c0.016,0.015,0.029,0.032,0.049,0.042
				c0.125,0.066,0.247,0.047,0.344-0.029c0.065,0.003,0.131,0.004,0.196,0.006c0.279-0.074,0.559-0.149,0.838-0.224
				c0.12-0.124,0.239-0.247,0.358-0.37c0.033-0.197,0.065-0.394,0.097-0.591c0.037-0.297,0.074-0.594,0.111-0.891
				c-0.072-0.24-0.195-0.479-0.205-0.722c-0.03-0.706-0.014-1.414-0.017-2.12c-0.095-0.194-0.262-0.385-0.271-0.582
				c-0.032-0.657-0.006-1.317-0.002-1.975c-0.001-0.691-0.002-1.383-0.003-2.073c0.091-0.106,0.183-0.211,0.274-0.317
				c0.102-0.694,0.205-1.387,0.308-2.081c0.048-0.102,0.095-0.204,0.142-0.307c0.103-0.346,0.205-0.691,0.309-1.036L205.923,658.281
				z"/>
			<path fill="#E05350" d="M215.24,674.306c0.297-0.561,0.638-1.126,0.454-1.792c-0.136-0.487-0.36-0.95-0.573-1.498
				c0.274-0.15,0.548-0.299,0.992-0.542c-0.28-0.24-0.499-0.457-0.747-0.633c-0.326-0.231-0.676-0.429-1.016-0.641
				c0.455,0.132,0.937,0.208,1.358,0.41c0.536,0.258,0.606,0.953,0.326,1.535c-0.134,0.279-0.181,0.674-0.098,0.968
				C216.211,673.088,215.969,673.957,215.24,674.306"/>
			<path fill="#DB394D" d="M208.548,692.102c-0.566,0.02-1.132,0.039-1.698,0.058c-0.089-0.375-0.179-0.75-0.268-1.125
				c0.703-0.013,1.406-0.026,2.109-0.038C208.643,691.366,208.595,691.734,208.548,692.102"/>
			<path fill="#DB394D" d="M192.535,689.781c-0.605,0.042-1.188,0.004-1.646-0.468c0.03-0.483,0.06-0.966,0.09-1.449
				c0.783,0.241,1.419,0.655,1.738,1.451C192.657,689.47,192.596,689.626,192.535,689.781"/>
			<path fill="#DBD4C9" d="M212.95,660.866c-0.078-0.464-0.155-0.929-0.233-1.393C213.272,659.857,212.936,660.391,212.95,660.866"
				/>
			<path fill="#E05350" d="M214.34,669.193c-0.304-0.018-0.609-0.037-0.914-0.056c0.074-0.081,0.148-0.163,0.222-0.241
				C213.877,668.997,214.108,669.095,214.34,669.193"/>
			<path fill="#DBD4C9" d="M212.679,657.864c-0.07-0.269-0.14-0.537-0.209-0.806C212.539,657.327,212.61,657.595,212.679,657.864"/>
			<path fill="#DBD4C9" d="M213.146,662.629c-0.057-0.156-0.113-0.312-0.17-0.468C213.032,662.317,213.089,662.473,213.146,662.629"
				/>
			<path fill="#C0AC8C" d="M205.252,670.976c0.033-0.197,0.065-0.394,0.097-0.591C205.316,670.582,205.285,670.779,205.252,670.976"
				/>
			<path fill="#E05350" d="M214.05,674.117c0.106,0.074,0.213,0.148,0.32,0.221C214.263,674.265,214.156,674.191,214.05,674.117"/>
			<path fill="#FFFBF0" d="M212.229,669.95c0.648,1.155,0.978,2.391,0.938,3.72c-0.692-0.45-1.384-0.899-2.075-1.349
				c0.622-0.399,0.691-0.942,0.445-1.594c-0.093-0.246-0.104-0.524-0.152-0.787C211.666,669.943,211.948,669.947,212.229,669.95"/>
			<path fill="#C0AC8C" d="M205.238,666.651c-0.095-0.194-0.262-0.384-0.271-0.582c-0.031-0.657-0.006-1.316-0.002-1.975
				c0.095,0.194,0.261,0.384,0.27,0.583C205.267,665.333,205.241,665.993,205.238,666.651"/>
			<path fill="#BFAA89" d="M205.996,658.278l-0.073,0.002l-0.072-0.001c0.056-0.082,0.112-0.164,0.167-0.246
				C206.01,658.115,206.003,658.197,205.996,658.278"/>
			<path fill="#C0AC8C" d="M205.544,659.622c0.048-0.102,0.095-0.204,0.142-0.307C205.64,659.417,205.592,659.52,205.544,659.622"/>
			<path fill="#C0AC8C" d="M204.962,662.02c0.091-0.106,0.183-0.211,0.274-0.317C205.145,661.808,205.054,661.914,204.962,662.02"/>
			<path fill="#E05350" d="M213.169,669.197c-0.102,0.093-0.204,0.185-0.306,0.277C212.965,669.382,213.067,669.289,213.169,669.197
				"/>
			<path fill="#FEFEFE" d="M213.158,673.66c0.423-0.119,0.58,0.029,0.458,0.457C213.463,673.965,213.31,673.813,213.158,673.66"/>
			<path fill="#FFFBF0" d="M213.792,660.943c-0.007-0.155-0.127-0.301-0.289-0.307c-0.003-0.008-0.005-0.016-0.007-0.024
				c-0.032-0.122-0.054-0.248-0.071-0.373c-0.002-0.018-0.005-0.043-0.006-0.05c-0.004-0.032-0.008-0.064-0.011-0.096
				c-0.007-0.065-0.013-0.129-0.02-0.194c-0.014-0.139-0.029-0.278-0.043-0.416c-0.011-0.104-0.066-0.202-0.15-0.26
				c-0.052-0.688-0.082-1.377-0.08-2.068c0.002-0.4-0.621-0.401-0.622,0c-0.006,1.677,0.149,3.349,0.457,4.998
				c0.073,0.393,0.673,0.226,0.6-0.165c-0.045-0.245-0.081-0.49-0.119-0.735c0.017,0,0.034,0.004,0.051,0.003
				C213.643,661.246,213.799,661.116,213.792,660.943"/>
			<path fill="#DB394D" d="M216.061,670.794c0.121-0.337,0.039-0.693-0.188-0.964c-0.236-0.282-0.597-0.408-0.936-0.515
				c-0.02-0.006-0.036-0.003-0.055-0.006c-0.241-0.096-0.483-0.19-0.728-0.277c-0.071-0.025-0.141-0.049-0.212-0.073
				c-0.088-0.03-0.177-0.069-0.272-0.066c-0.201,0.005-0.347,0.194-0.484,0.32c-0.12,0.111-0.121,0.33,0,0.44
				c0.128,0.117,0.312,0.118,0.44,0c0.038-0.036,0.077-0.071,0.115-0.106c0.12,0.041,0.24,0.082,0.36,0.125
				c0.258,0.093,0.514,0.192,0.767,0.295c0.032,0.013,0.066,0.013,0.1,0.011c0.182,0.062,0.365,0.144,0.47,0.303
				c0.126,0.19,0.022,0.406-0.128,0.546c-0.115,0.106-0.215,0.217-0.25,0.376c-0.036,0.163-0.001,0.33,0.045,0.487
				c0.091,0.31,0.155,0.62,0.177,0.943c0.005,0.068,0.032,0.129,0.07,0.181c-0.003,0.066,0.001,0.132-0.008,0.198
				c-0.014,0.109-0.05,0.274-0.091,0.399c-0.04,0.12-0.079,0.18-0.172,0.265c-0.011,0.01-0.014,0.014-0.016,0.016
				c-0.003,0.001-0.009,0.004-0.022,0.012c-0.027,0.016-0.055,0.032-0.082,0.048c-0.012,0.008-0.017,0.011-0.019,0.012
				c-0.003,0.001-0.009,0.003-0.023,0.007c-0.03,0.011-0.06,0.021-0.092,0.029c-0.125,0.034-0.262,0.037-0.404,0.019
				c-0.1-0.014-0.246-0.05-0.357-0.093c-0.02-0.007-0.021-0.007-0.002,0c-0.016-0.006-0.031-0.013-0.045-0.021
				c-0.029-0.015-0.058-0.031-0.086-0.048c-0.014-0.009-0.027-0.018-0.041-0.027c0.016,0.012,0.016,0.012-0.001-0.002
				c-0.028-0.025-0.054-0.052-0.079-0.081c-0.052-0.061-0.129-0.087-0.208-0.088c-0.039-0.018-0.083-0.029-0.135-0.029
				c-0.388,0-0.397,0.582-0.031,0.616c0.25,0.242,0.608,0.35,0.946,0.392c0.387,0.047,0.779-0.035,1.087-0.281
				c0.301-0.24,0.419-0.618,0.473-0.986c0.06-0.403,0.047-0.801-0.043-1.199c-0.017-0.077-0.069-0.136-0.134-0.176
				c-0.023-0.099-0.042-0.198-0.071-0.297c-0.009-0.032-0.021-0.066-0.026-0.099c-0.002-0.014-0.001-0.074-0.007-0.058
				c0.002-0.005,0.095-0.082,0.119-0.107C215.909,671.112,216.002,670.96,216.061,670.794"/>
			<path fill="#FEFEFE" d="M216.516,671.484C216.517,671.484,216.517,671.484,216.516,671.484
				C216.517,671.484,216.517,671.484,216.516,671.484z"/>
			<path fill="#FFFBF0" d="M216.974,672.383c-0.033-0.036-0.066-0.074-0.098-0.112c-0.019-0.023-0.037-0.046-0.056-0.069
				c-0.002-0.003-0.004-0.004-0.006-0.007c-0.001-0.028-0.003-0.057-0.013-0.084c0.053-0.094,0.068-0.209,0.004-0.304
				c-0.066-0.097-0.144-0.175-0.226-0.257c-0.016-0.015-0.03-0.03-0.044-0.046c-0.002-0.001-0.006-0.007-0.01-0.012
				c-0.005-0.007-0.009-0.014-0.013-0.022v-0.025c0.002-0.007,0.003-0.014,0.005-0.021c0.002-0.01,0.005-0.019,0.009-0.028
				c0.001-0.001,0.001-0.002,0.002-0.004c0.008-0.014,0.023-0.023,0.028-0.041c0.002-0.004,0-0.01,0.001-0.014
				c0.014-0.024,0.028-0.048,0.044-0.072c0.002-0.003,0.003-0.006,0.005-0.009c0.086-0.077,0.157-0.169,0.175-0.287
				c0.004-0.026,0.003-0.052,0.001-0.079c0.056-0.077,0.113-0.153,0.169-0.23c0.045-0.061,0.051-0.17,0.032-0.239
				c-0.02-0.073-0.075-0.151-0.143-0.186c-0.001,0-0.002,0-0.003-0.001c-0.014-0.033-0.034-0.063-0.062-0.088
				c-0.123-0.113-0.318-0.124-0.439,0c-0.102,0.102-0.121,0.219-0.139,0.354c0.004-0.028,0.007-0.056,0.011-0.083
				c-0.016,0.106-0.05,0.209-0.09,0.308c-0.012,0.026-0.026,0.051-0.039,0.076l-0.133,0.18c-0.178,0.162-0.262,0.379-0.176,0.628
				c0.021,0.062,0.051,0.12,0.078,0.181c0.052,0.156,0.132,0.302,0.228,0.436c0.136,0.214,0.294,0.416,0.459,0.598
				c0.11,0.121,0.33,0.12,0.44,0C217.092,672.694,217.091,672.512,216.974,672.383"/>
			<path fill="#FFFBF0" d="M217.257,674.456c-0.789-0.11-1.607,0.043-2.386-0.127c-0.578-0.126-0.989-0.485-1.282-0.954
				c-0.169-0.499-0.38-0.984-0.643-1.441c-0.081-0.141-0.285-0.202-0.426-0.112c-0.142,0.092-0.198,0.274-0.111,0.426
				c0.134,0.233,0.257,0.473,0.365,0.719c0.002,0.004,0.004,0.008,0.005,0.012c-0.281-0.22-0.566-0.446-0.768-0.742
				c-0.225-0.329-0.764-0.018-0.537,0.314c0.399,0.582,1.011,0.914,1.499,1.405c0.21,0.211,0.39,0.454,0.456,0.75
				c0.018,0.083,0.084,0.784-0.034,0.787c-0.4,0.01-0.401,0.631,0,0.622c0.512-0.012,0.676-0.495,0.682-0.929
				c0.002-0.177-0.012-0.347-0.039-0.514c0.148,0.084,0.305,0.156,0.474,0.208c0.84,0.254,1.723,0.057,2.578,0.177
				c0.167,0.023,0.332-0.041,0.383-0.217C217.516,674.694,217.424,674.479,217.257,674.456"/>
			<path fill="#DB394D" d="M213.604,674.111l0.011,0.006c-0.153-0.152-0.306-0.304-0.458-0.456l0.01,0.01
				c-0.692-0.45-1.384-0.899-2.075-1.349c-0.163-0.097-0.375-0.315-0.48-0.272c-0.512,0.211-1.003,0.479-1.482,0.76
				c-0.091,0.053-0.094,0.256-0.137,0.39c0.639,0.221,0.4,0.766,0.434,1.202c0.104,1.323,0.232,2.612,1.486,3.464
				c0.471,0.319,0.901,0.38,1.331,0.092c0.284-0.19,0.418-0.438,0.455-0.715c0.052-0.133,0.09-0.272,0.096-0.413
				c0.01-0.215-0.03-0.439-0.085-0.646c-0.043-0.165-0.116-0.314-0.204-0.455c0.072,0.01,0.147,0.011,0.221,0.005
				c0.131-0.011,0.255-0.031,0.376-0.081c0.167-0.071,0.288-0.192,0.361-0.344c0.156-0.171,0.151-0.46,0.137-1.047
				C213.602,674.21,213.604,674.161,213.604,674.111"/>
			<path fill="#FFFBF0" d="M213.751,673.955c-0.223-0.314-0.501-0.577-0.781-0.839c-0.329-0.307-0.657-0.614-0.986-0.92
				c-0.292-0.273-0.733,0.166-0.44,0.44c0.517,0.483,1.081,0.944,1.546,1.479c0.308,0.356,0.624,0.991,0.259,1.422
				c-0.108,0.128-0.126,0.314,0,0.44c0.111,0.111,0.331,0.129,0.44,0C214.29,675.385,214.177,674.555,213.751,673.955"/>
			<path fill="#AB997B" d="M204.709,661.615c-0.009,1.614-0.016,3.228-0.025,4.843c-0.002,0.401,0.62,0.401,0.622,0l0.025-4.843
				C205.333,661.215,204.711,661.215,204.709,661.615"/>
			<path fill="#D8C09B" d="M207.378,673.116c-0.003,0.002-0.004,0.007-0.02-0.001c-0.058-0.031-0.089-0.087-0.119-0.142
				c-0.074-0.138-0.123-0.292-0.18-0.438c-0.146-0.375-0.291-0.75-0.426-1.128c-0.265-0.743-0.49-1.501-0.622-2.28
				c-0.003-0.014-0.01-0.022-0.014-0.035c0.123-0.057,0.214-0.179,0.168-0.348c-0.454-1.685-0.42-3.435-0.346-5.164
				c0.077-1.807,0.238-3.611,0.646-5.377c0.09-0.39-0.509-0.556-0.6-0.165c-0.421,1.819-0.589,3.681-0.668,5.542
				c-0.076,1.784-0.101,3.591,0.368,5.33c0.005,0.017,0.014,0.026,0.02,0.041c-0.114,0.062-0.202,0.181-0.174,0.343
				c0.172,1.011,0.501,1.981,0.866,2.936c0.088,0.23,0.177,0.459,0.268,0.688c0.081,0.204,0.156,0.416,0.308,0.581
				c0.289,0.316,0.808,0.324,1.048-0.051C208.111,673.115,207.602,672.813,207.378,673.116"/>
			<path fill="#67522F" d="M203.747,671.478c-0.319-0.004-0.638,0.013-0.955,0.052c-0.167,0.02-0.311,0.128-0.311,0.311
				c0,0.153,0.143,0.332,0.311,0.311c0.141-0.017,0.281-0.014,0.423-0.023c-0.026,0.036-0.052,0.071-0.075,0.105
				c-0.127,0.188-0.256,0.375-0.385,0.561c-0.268,0.386-0.539,0.768-0.815,1.148c-0.099,0.136-0.024,0.347,0.111,0.425
				c0.157,0.092,0.327,0.025,0.426-0.111c0.284-0.393,0.564-0.788,0.84-1.186c0.139-0.199,0.276-0.399,0.411-0.599
				c0.126-0.186,0.276-0.375,0.319-0.601C204.084,671.674,203.962,671.481,203.747,671.478"/>
			<path fill="#4F3E24" d="M204.967,671.561c-0.065-0.147-0.212-0.213-0.368-0.18c-0.196,0.042-0.392,0.083-0.588,0.125
				c-0.158,0.033-0.25,0.214-0.218,0.366c-0.002,0.003-0.006,0.005-0.008,0.009c-0.162,0.261-0.3,0.538-0.417,0.821
				c-0.233,0.561-0.361,1.158-0.392,1.765c-0.008,0.168,0.15,0.311,0.311,0.311c0.175,0,0.302-0.142,0.311-0.311
				c0.026-0.517,0.14-1.025,0.332-1.507c0.09-0.23,0.208-0.447,0.331-0.661c0.069-0.119,0.078-0.131,0.199-0.183
				c0.126-0.056,0.253-0.111,0.379-0.166C204.979,671.888,205.023,671.689,204.967,671.561"/>
		</g>
	</g>
	<path fill="#D495AB" d="M116.234,1031.31h42.235v55.164h-42.235V1031.31z M136.884,1014.569l21.585,16.775l-42.235,0.248
		L136.884,1014.569z"/>
	<rect x="50.319" y="1031.592" fill="#F8C1D5" width="65.915" height="54.882"/>
	<polygon fill="#8F5066" points="116.303,1031.592 95.67,1014.568 136.937,1014.568 	"/>
	<polygon fill="#8F5066" points="70.953,1014.569 50.319,1031.592 91.586,1031.592 	"/>
	<rect x="70.953" y="1014.568" fill="#8F5066" width="45.351" height="17.024"/>
	<polygon fill="#D495AB" points="143.073,1071.072 56.362,1089.249 56.362,1052.896 	"/>
	<rect x="71.839" y="1055.67" fill="#8F5066" width="22.875" height="30.804"/>
	<rect x="94.562" y="1055.641" fill="#F8C1D5" width="21.52" height="30.804"/>
	<path fill="#D495AB" d="M209.964,1031.31h42.235v55.164h-42.235V1031.31z M230.614,1014.569l21.585,16.775l-42.235,0.248
		L230.614,1014.569z"/>
	<rect x="144.049" y="1031.592" fill="#F8C1D5" width="65.915" height="54.882"/>
	<polygon fill="#8F5066" points="210.033,1031.592 189.4,1014.568 230.667,1014.568 	"/>
	<polygon fill="#8F5066" points="164.683,1014.569 144.049,1031.592 185.316,1031.592 	"/>
	<rect x="164.683" y="1014.568" fill="#8F5066" width="45.351" height="17.024"/>
	<polygon fill="#D495AB" points="236.803,1071.072 150.092,1089.249 150.092,1052.896 	"/>
	<rect x="165.569" y="1055.67" fill="#8F5066" width="22.875" height="30.804"/>
	<rect x="188.292" y="1055.641" fill="#F8C1D5" width="21.52" height="30.804"/>
	<path fill="#D6CC5A" d="M116.36,936.898h42.235v55.164H116.36V936.898z M137.01,920.156l21.585,16.776l-42.235,0.247
		L137.01,920.156z"/>
	<rect x="50.445" y="937.18" fill="#FFF68F" width="65.915" height="54.882"/>
	<polygon fill="#BFA152" points="116.429,937.18 95.796,920.156 137.063,920.156 	"/>
	<polygon fill="#BFA152" points="71.078,920.156 50.445,937.18 91.712,937.18 	"/>
	<rect x="71.078" y="920.156" fill="#BFA152" width="45.351" height="17.024"/>
	<polygon fill="#D6CC5A" points="143.35,976.69 56.639,994.866 56.639,958.513 	"/>
	<rect x="94.84" y="961.258" fill="#FFF68F" width="21.52" height="30.804"/>
	<rect x="71.965" y="961.258" fill="#BFA152" width="22.875" height="30.804"/>
	<path fill="#D6CC5A" d="M210.09,936.898h42.234v55.164H210.09V936.898z M230.74,920.156l21.585,16.776l-42.235,0.247
		L230.74,920.156z"/>
	<rect x="144.175" y="937.18" fill="#FFF68F" width="65.916" height="54.882"/>
	<polygon fill="#BFA152" points="210.159,937.18 189.526,920.156 230.792,920.156 	"/>
	<polygon fill="#BFA152" points="164.808,920.156 144.175,937.18 185.442,937.18 	"/>
	<rect x="164.809" y="920.156" fill="#BFA152" width="45.35" height="17.024"/>
	<polygon fill="#D6CC5A" points="237.08,976.69 150.369,994.866 150.369,958.513 	"/>
	<rect x="188.57" y="961.258" fill="#FFF68F" width="21.52" height="30.804"/>
	<rect x="165.694" y="961.258" fill="#BFA152" width="22.876" height="30.804"/>
	
		<rect x="50.206" y="925.986" fill="none" stroke="#D495AB" stroke-linecap="round" stroke-linejoin="round" stroke-miterlimit="10" width="0.007" height="0.007"/>
	<path fill="#D495AB" d="M115.925,1124.811h42.235v55.164h-42.235V1124.811z M136.575,1108.07l21.585,16.776l-42.235,0.248
		L136.575,1108.07z"/>
	<rect x="50.01" y="1125.094" fill="#F8C1D5" width="65.915" height="54.882"/>
	<polygon fill="#8F5066" points="115.994,1125.093 95.361,1108.069 136.628,1108.069 	"/>
	<polygon fill="#8F5066" points="70.644,1108.07 50.01,1125.093 91.277,1125.093 	"/>
	<rect x="70.643" y="1108.069" fill="#8F5066" width="45.351" height="17.024"/>
	<polygon fill="#D495AB" points="142.764,1164.573 56.052,1182.75 56.052,1146.397 	"/>
	<rect x="71.53" y="1149.171" fill="#8F5066" width="22.875" height="30.804"/>
	<rect x="94.253" y="1149.142" fill="#F8C1D5" width="21.52" height="30.804"/>
	<path fill="#D495AB" d="M209.655,1124.811h42.235v55.164h-42.235V1124.811z M230.305,1108.07l21.585,16.776l-42.235,0.248
		L230.305,1108.07z"/>
	<rect x="143.74" y="1125.094" fill="#F8C1D5" width="65.915" height="54.882"/>
	<polygon fill="#8F5066" points="209.724,1125.093 189.091,1108.069 230.358,1108.069 	"/>
	<polygon fill="#8F5066" points="164.374,1108.07 143.74,1125.093 185.007,1125.093 	"/>
	<rect x="164.373" y="1108.069" fill="#8F5066" width="45.351" height="17.024"/>
	<polygon fill="#D495AB" points="236.494,1164.573 149.783,1182.75 149.783,1146.397 	"/>
	<rect x="165.26" y="1149.171" fill="#8F5066" width="22.875" height="30.804"/>
	<rect x="187.983" y="1149.142" fill="#F8C1D5" width="21.52" height="30.804"/>
	<rect style="opacity:0.7;" x="50.01" y="1014.569" fill="#FFFCF1" width="201.88" height="168.181"/>
</g>
<style>
#g-pantries-tablet-300-img rect, #g-pantries-tablet-300-img circle, #g-pantries-tablet-300-img path, #g-pantries-tablet-300-img line, #g-pantries-tablet-300-img polyline { vector-effect: non-scaling-stroke; }
</style>
</svg>

