<?xml version="1.0" encoding="utf-8"?>
<!-- Generator: Adobe Illustrator 23.1.1, SVG Export Plug-In . SVG Version: 6.00 Build 0)  -->
<svg version="1.2" baseProfile="tiny" id="g-plate-desktop_tablet-img" xmlns="http://www.w3.org/2000/svg" xmlns:xlink="http://www.w3.org/1999/xlink"
	 x="0px" y="0px" viewBox="0 0 600 550" xml:space="preserve">
<g>
	<g id="layer1_9_" transform="translate(-72.047241,-226.18111)">
		<g id="g3176_9_">
			<linearGradient id="SVGID_1_" gradientUnits="userSpaceOnUse" x1="256.9077" y1="395.6617" x2="573.3124" y2="681.6772">
				<stop  offset="0" style="stop-color:#FCFDFF"/>
				<stop  offset="1" style="stop-color:#F0EFEF"/>
			</linearGradient>
			<linearGradient id="SVGID_2_" gradientUnits="userSpaceOnUse" x1="256.5553" y1="395.343" x2="573.4098" y2="681.7652">
				<stop  offset="0" style="stop-color:#F0EFEF"/>
				<stop  offset="1" style="stop-color:#FCFDFF"/>
			</linearGradient>
			<path fill-rule="evenodd" fill="url(#SVGID_1_)" stroke="url(#SVGID_2_)" stroke-width="1.6081" d="M389.164,260.681
				l-0.472,253.91c0,0-204.87,96.858-227.834,107.714c41.13,80.892,125.157,136.311,222.131,136.297
				c137.519-0.02,248.984-111.501,248.963-249c0-0.024,0-0.049,0-0.073C631.932,374.12,523.795,263.977,389.164,260.681z"/>
			<linearGradient id="SVGID_3_" gradientUnits="userSpaceOnUse" x1="503.4989" y1="619.2096" x2="304.3184" y2="437.8329">
				<stop  offset="0" style="stop-color:#EBEBEB"/>
				<stop  offset="1" style="stop-color:#FFFFFF"/>
			</linearGradient>
			<path fill-rule="evenodd" fill="#F5F5F5" stroke="url(#SVGID_3_)" stroke-width="5.4046" d="M389.16,347.306
				c-0.052-0.002-0.105-0.001-0.157-0.003l-0.311,167.289c0,0-82.952,39.218-149.206,70.541
				c27.157,51.664,81.307,86.893,143.681,86.878c89.589-0.022,162.198-72.734,162.176-162.408c0-0.027,0-0.053,0-0.08
				C545.322,421.885,475.937,350.481,389.16,347.306z"/>
		</g>
	</g>
	<linearGradient id="SVGID_4_" gradientUnits="userSpaceOnUse" x1="316.6163" y1="288.3792" x2="316.6163" y2="288.3792">
		<stop  offset="0" style="stop-color:#EBEBEB"/>
		<stop  offset="1" style="stop-color:#FFFFFF"/>
	</linearGradient>
	<path fill-rule="evenodd" fill="#F5F5F5" stroke="url(#SVGID_4_)" stroke-width="5.4046" d="M316.616,288.379"/>
	<g id="layer1_8_" transform="translate(-72.047241,-226.18111)">
		<g id="g3176_8_">
			<linearGradient id="SVGID_5_" gradientUnits="userSpaceOnUse" x1="153.5979" y1="337.6669" x2="350.9934" y2="516.1035">
				<stop  offset="0" style="stop-color:#FCFDFF"/>
				<stop  offset="1" style="stop-color:#F0EFEF"/>
			</linearGradient>
			<linearGradient id="SVGID_6_" gradientUnits="userSpaceOnUse" x1="153.3371" y1="337.3692" x2="351.4149" y2="516.4225">
				<stop  offset="0" style="stop-color:#F0EFEF"/>
				<stop  offset="1" style="stop-color:#FCFDFF"/>
			</linearGradient>
			<path fill-rule="evenodd" fill="url(#SVGID_5_)" stroke="url(#SVGID_6_)" stroke-width="1.6081" d="M362.707,242.69
				c-2.077-0.051-4.16-0.078-6.249-0.078c-137.519,0.02-248.984,111.501-248.963,249c0,0.024,0,0.049,0,0.073
				c0.006,40.539,9.709,78.809,26.906,112.63l227.834-107.714L362.707,242.69z"/>
			<linearGradient id="SVGID_7_" gradientUnits="userSpaceOnUse" x1="305.9743" y1="465.1118" x2="225.5347" y2="391.8623">
				<stop  offset="0" style="stop-color:#EBEBEB"/>
				<stop  offset="1" style="stop-color:#FFFFFF"/>
			</linearGradient>
			<path fill-rule="evenodd" fill="#F5F5F5" stroke="url(#SVGID_7_)" stroke-width="5.4046" d="M362.546,329.312
				c-1.963-0.07-3.935-0.108-5.916-0.107c-89.589,0.022-162.198,72.734-162.176,162.408c0,0.027,0,0.053,0,0.08
				c0.007,27.241,6.725,52.907,18.575,75.45"/>
		</g>
	</g>
	<linearGradient id="SVGID_8_" gradientUnits="userSpaceOnUse" x1="267.6599" y1="257.8791" x2="267.6599" y2="257.8791">
		<stop  offset="0" style="stop-color:#EBEBEB"/>
		<stop  offset="1" style="stop-color:#FFFFFF"/>
	</linearGradient>
	<path fill-rule="evenodd" fill="#F5F5F5" stroke="url(#SVGID_8_)" stroke-width="5.4046" d="M267.66,257.879"/>
	<g id="layer1_6_" transform="translate(-72.047241,-226.18111)">
		<g id="g3176_6_">
			<linearGradient id="SVGID_9_" gradientUnits="userSpaceOnUse" x1="506.7029" y1="624.1279" x2="307.5223" y2="442.7513">
				<stop  offset="0" style="stop-color:#EBEBEB"/>
				<stop  offset="1" style="stop-color:#FFFFFF"/>
			</linearGradient>
			<path fill-rule="evenodd" fill="#F5F5F5" stroke="url(#SVGID_9_)" stroke-width="5.4046" d="M392.364,352.224
				c-0.052-0.002-0.105-0.001-0.157-0.003l-0.311,167.289c0,0-82.952,39.218-149.206,70.541
				c27.157,51.664,81.307,86.893,143.681,86.878c89.589-0.022,162.198-72.734,162.176-162.408c0-0.027,0-0.053,0-0.08
				C548.526,426.803,479.14,355.399,392.364,352.224z"/>
		</g>
	</g>
	<path fill-rule="evenodd" fill="none" d="M106.267,410.929c0,70.303,73.988,106.348,175.95,133.043
		c110.363,28.895,275.987-89.056,272.276-182.467"/>
	
		<text transform="matrix(0.9178 -0.4043 0.4031 0.9151 406.7119 528.6084)" fill="#787878" font-family="'Roboto-Regular'" font-size="11.9652px">S</text>
	
		<text transform="matrix(0.9082 -0.4254 0.4242 0.9056 413.2041 525.7471)" fill="#787878" font-family="'Roboto-Regular'" font-size="11.9652px">o</text>
	
		<text transform="matrix(0.8987 -0.4451 0.4438 0.8961 419.3584 522.8633)" fill="#787878" font-family="'Roboto-Regular'" font-size="11.9652px">u</text>
	
		<text transform="matrix(0.891 -0.4604 0.459 0.8884 425.248 519.9336)" fill="#787878" font-family="'Roboto-Regular'" font-size="11.9652px">r</text>
	
		<text transform="matrix(0.8833 -0.4749 0.4735 0.8808 428.8496 518.083)" fill="#787878" font-family="'Roboto-Regular'" font-size="11.9652px">c</text>
	
		<text transform="matrix(0.8738 -0.4922 0.4908 0.8713 434.333 515.1357)" fill="#787878" font-family="'Roboto-Regular'" font-size="11.9652px">e</text>
	
		<text transform="matrix(0.8666 -0.5048 0.5033 0.8641 439.8379 512.0205)" fill="#787878" font-family="'Roboto-Regular'" font-size="11.9652px">:</text>
	
		<text transform="matrix(0.862 -0.5127 0.5112 0.8595 442.3457 510.5596)" fill="#787878" font-family="'Roboto-Regular'" font-size="11.9652px"> </text>
	
		<text transform="matrix(0.8543 -0.5254 0.5239 0.8518 444.8779 509.0693)" fill="#787878" font-family="'Roboto-Regular'" font-size="11.9652px">F</text>
	
		<text transform="matrix(0.8431 -0.5431 0.5415 0.8407 450.4883 505.6201)" fill="#787878" font-family="'Roboto-Regular'" font-size="11.9652px">o</text>
	
		<text transform="matrix(0.8315 -0.5608 0.5592 0.829 456.2041 501.9404)" fill="#787878" font-family="'Roboto-Regular'" font-size="11.9652px">o</text>
	
		<text transform="matrix(0.8194 -0.5783 0.5766 0.817 461.8574 498.127)" fill="#787878" font-family="'Roboto-Regular'" font-size="11.9652px">d</text>
	
		<text transform="matrix(0.8105 -0.5907 0.589 0.8081 467.3379 494.2412)" fill="#787878" font-family="'Roboto-Regular'" font-size="11.9652px"> </text>
	
		<text transform="matrix(0.8006 -0.6041 0.6023 0.7982 469.7461 492.5098)" fill="#787878" font-family="'Roboto-Regular'" font-size="11.9652px">B</text>
	
		<text transform="matrix(0.7868 -0.6219 0.6201 0.7846 475.666 488.0381)" fill="#787878" font-family="'Roboto-Regular'" font-size="11.9652px">a</text>
	
		<text transform="matrix(0.7733 -0.6386 0.6367 0.7711 480.749 484.0215)" fill="#787878" font-family="'Roboto-Regular'" font-size="11.9652px">n</text>
	
		<text transform="matrix(0.7596 -0.6548 0.6529 0.7574 485.8271 479.8262)" fill="#787878" font-family="'Roboto-Regular'" font-size="11.9652px">k</text>
	
		<text transform="matrix(0.7495 -0.6664 0.6645 0.7473 490.3955 475.873)" fill="#787878" font-family="'Roboto-Regular'" font-size="11.9652px"> </text>
	
		<text transform="matrix(0.7412 -0.6757 0.6737 0.739 492.6201 473.8984)" fill="#787878" font-family="'Roboto-Regular'" font-size="11.9652px">f</text>
	
		<text transform="matrix(0.7279 -0.6899 0.6879 0.7258 495.6816 471.126)" fill="#787878" font-family="'Roboto-Regular'" font-size="11.9652px">o</text>
	
		<text transform="matrix(0.7141 -0.7041 0.7021 0.7121 500.6035 466.4443)" fill="#787878" font-family="'Roboto-Regular'" font-size="11.9652px">r</text>
	
		<text transform="matrix(0.7049 -0.7134 0.7114 0.7028 503.4824 463.6006)" fill="#787878" font-family="'Roboto-Regular'" font-size="11.9652px"> </text>
	
		<text transform="matrix(0.689 -0.7288 0.7267 0.687 505.5605 461.542)" fill="#787878" font-family="'Roboto-Regular'" font-size="11.9652px">N</text>
	
		<text transform="matrix(0.6671 -0.7489 0.7467 0.6651 511.3848 455.3613)" fill="#787878" font-family="'Roboto-Regular'" font-size="11.9652px">e</text>
	
		<text transform="matrix(0.6425 -0.7701 0.7678 0.6406 515.5898 450.6748)" fill="#787878" font-family="'Roboto-Regular'" font-size="11.9652px">w</text>
	
		<text transform="matrix(0.6218 -0.7868 0.7846 0.62 521.2998 443.7705)" fill="#787878" font-family="'Roboto-Regular'" font-size="11.9652px"> </text>
	
		<text transform="matrix(0.6031 -0.8013 0.799 0.6013 523.1318 441.4932)" fill="#787878" font-family="'Roboto-Regular'" font-size="11.9652px">Y</text>
	
		<text transform="matrix(0.5747 -0.8219 0.8195 0.5731 527.4785 435.7178)" fill="#787878" font-family="'Roboto-Regular'" font-size="11.9652px">o</text>
	
		<text transform="matrix(0.5502 -0.8385 0.8361 0.5486 531.4717 429.9668)" fill="#787878" font-family="'Roboto-Regular'" font-size="11.9652px">r</text>
	
		<text transform="matrix(0.5255 -0.8542 0.8517 0.524 533.79 426.4561)" fill="#787878" font-family="'Roboto-Regular'" font-size="11.9652px">k</text>
	
		<text transform="matrix(0.5018 -0.8683 0.8658 0.5004 537.0361 421.1377)" fill="#787878" font-family="'Roboto-Regular'" font-size="11.9652px"> </text>
	
		<text transform="matrix(0.4713 -0.8852 0.8827 0.47 538.6406 418.4414)" fill="#787878" font-family="'Roboto-Regular'" font-size="11.9652px">C</text>
	
		<text transform="matrix(0.4382 -0.9021 0.8995 0.437 542.3555 411.3623)" fill="#787878" font-family="'Roboto-Regular'" font-size="11.9652px">i</text>
	
		<text transform="matrix(0.4155 -0.9128 0.9102 0.4143 543.6895 408.627)" fill="#787878" font-family="'Roboto-Regular'" font-size="11.9652px">t</text>
	
		<text transform="matrix(0.3812 -0.9277 0.925 0.3801 545.4062 404.8906)" fill="#787878" font-family="'Roboto-Regular'" font-size="11.9652px">y</text>
	
		<text transform="matrix(0.3476 -0.9407 0.938 0.3466 547.6113 399.4521)" fill="#787878" font-family="'Roboto-Regular'" font-size="11.9652px"> </text>
	<polyline fill="none" stroke="#FFFBF0" stroke-width="12" stroke-miterlimit="10" points="316.614,25.108 318.578,290.678 
		84.854,401.123 	"/>
</g>
<style>
#g-plate-desktop_tablet-img rect, #g-plate-desktop_tablet-img circle, #g-plate-desktop_tablet-img path, #g-plate-desktop_tablet-img line, #g-plate-desktop_tablet-img polyline { vector-effect: non-scaling-stroke; }
</style>
</svg>

